<?xml version="1.0" encoding="utf-8"?>
<!-- Generator: Adobe Illustrator 19.0.1, SVG Export Plug-In . SVG Version: 6.00 Build 0)  -->
<!DOCTYPE svg PUBLIC "-//W3C//DTD SVG 1.1//EN" "http://www.w3.org/Graphics/SVG/1.1/DTD/svg11.dtd">
<svg version="1.1" xmlns="http://www.w3.org/2000/svg" xmlns:xlink="http://www.w3.org/1999/xlink" x="0px" y="0px"
	 viewBox="0 0 792 1152" enable-background="new 0 0 792 1152" xml:space="preserve">
<g id="guides" display="none">
</g>
<g id="sky" display="none">
	<linearGradient id="SVGID_1_" gradientUnits="userSpaceOnUse" x1="387.2324" y1="768" x2="387.2324" y2="-2.426623e-08">
		<stop  offset="0" style="stop-color:#E4F1F8"/>
		<stop  offset="1" style="stop-color:#8DC4E7"/>
	</linearGradient>
	<rect x="-153.2" display="inline" fill="url(#SVGID_1_)" width="1081" height="768"/>
</g>
<g id="mountains">
	<linearGradient id="SVGID_2_" gradientUnits="userSpaceOnUse" x1="387.2324" y1="567.573" x2="387.2324" y2="768">
		<stop  offset="0" style="stop-color:#AF86DC"/>
		<stop  offset="0.4233" style="stop-color:#B088DC"/>
		<stop  offset="0.5757" style="stop-color:#B58FDA"/>
		<stop  offset="0.6844" style="stop-color:#BE9AD7"/>
		<stop  offset="0.7723" style="stop-color:#CBABD3"/>
		<stop  offset="0.8475" style="stop-color:#DBC1CE"/>
		<stop  offset="0.913" style="stop-color:#EFDCC8"/>
		<stop  offset="0.9235" style="stop-color:#F3E1C7"/>
	</linearGradient>
	<polygon fill="url(#SVGID_2_)" points="-153.2,610.9 -121.8,610.9 -111.4,649.6 -108.4,625.9 -103,582.4 -92.6,626.1 -92.6,572.1 
		-61.4,572.1 -44.7,665.6 -30.2,600.6 -15.6,665.6 5.2,588.1 63.5,588.1 63.5,606.3 80.2,593.8 103.1,641.6 115.6,584.7 
		130.2,609.7 140.6,567.6 190.6,573.3 190.6,661 211.4,590.4 221.8,604 240.5,579 317.4,579 317.4,626.1 340.5,599.5 365.5,637.1 
		378,610.9 415.5,610.9 433.5,572.1 504.8,572.1 523.6,616.6 563.3,594.8 575.7,616.6 602.9,616.6 602.9,640.5 642.4,586.9 
		709.6,586.9 723.6,607.5 744.5,567.6 788.1,567.6 788.1,616.6 819.4,591.5 827.8,616.6 846.5,607.5 904.8,607.5 927.7,580.1 
		927.7,768 -153.2,768 	"/>
</g>

<!--+++++++++++++++++++ SAND LAYER +++++++++++++++++++-->
<g id="sand">
	<linearGradient id="SVGID_3_" gradientUnits="userSpaceOnUse" x1="387.2324" y1="1152" x2="387.2324" y2="739.514">
		<stop  offset="0" style="stop-color:#E2B372"/>
		<stop  offset="1" style="stop-color:#F3E1C7"/>
	</linearGradient>
	<rect x="-153.2" y="739.5" fill="url(#SVGID_3_)" width="1081" height="412.5"/>
	<linearGradient id="SVGID_4_" gradientUnits="userSpaceOnUse" x1="474.8586" y1="822.9394" x2="865.8138" y2="1213.8948">
		<stop  offset="0" style="stop-color:#EED3AA"/>
		<stop  offset="0.2225" style="stop-color:#EBD2AB;stop-opacity:0.5546"/>
		<stop  offset="0.3568" style="stop-color:#E3CEAF;stop-opacity:0.2859"/>
		<stop  offset="0.4673" style="stop-color:#D5C8B5;stop-opacity:6.473410e-02"/>
		<stop  offset="0.4996" style="stop-color:#CFC5B7;stop-opacity:0"/>
	</linearGradient>
	<path opacity="0.46" fill="url(#SVGID_4_)" d="M927.7,739.5H678.8c0,0-162.1,2.7-185.3,73.8s87.3,84.9,73.4,115
		s-108.1-20.8-165.2,28.6c-57.1,49.4,84.2,96.5,38.6,106.6s-40.2-11.3-122.8,38.6s-44.8,49.9-44.8,49.9h655.1V739.5z"/>
	<linearGradient id="SVGID_5_" gradientUnits="userSpaceOnUse" x1="141.5723" y1="739.514" x2="141.5723" y2="1152">
		<stop  offset="0" style="stop-color:#E2B372"/>
		<stop  offset="1" style="stop-color:#F3E1C7"/>
	</linearGradient>
	<path opacity="0.28" fill="url(#SVGID_5_)" d="M434.9,739.5c0,0,28.5,74.6-163.4,84.6S75.9,930,112.6,945.8
		c36.7,15.8,222.2-27.5,249.7,20.4c27.5,47.9-67,15.4-124,71.8c-56.9,56.4,34,114,34,114h-425.6V739.5H434.9z"/>
	<linearGradient id="SVGID_6_" gradientUnits="userSpaceOnUse" x1="-153.2438" y1="945.7482" x2="827.9724" y2="945.7482">
		<stop  offset="0" style="stop-color:#E2B372"/>
		<stop  offset="0.344" style="stop-color:#E1B475;stop-opacity:0.656"/>
		<stop  offset="0.5515" style="stop-color:#DFB67D;stop-opacity:0.4485"/>
		<stop  offset="0.7229" style="stop-color:#DBBA8B;stop-opacity:0.2771"/>
		<stop  offset="0.8736" style="stop-color:#D5BF9F;stop-opacity:0.1264"/>
		<stop  offset="1" style="stop-color:#CFC5B7;stop-opacity:0"/>
	</linearGradient>
	<path opacity="0.1" fill="url(#SVGID_6_)" d="M460.6,739.5c0,0,205.1-2.6,209.7,55.5c4.6,58.1-181.2,67.4-143.6,125.4
		c37.6,58,324.8,30.7,299.7,117.3S552.9,1152,552.9,1152h-706.2V739.5H460.6z"/>
</g>

<!--+++++++++++++++++++ CACTI LAYER +++++++++++++++++++-->
<g id="cacti">
	<g>
		<g>
			<path fill="#1B933F" d="M698.3,783.1c0.4,17.6,12.8,33.2,31.1,33.7c9.7,0.3,9.6-14.7,0-15c-10-0.3-15.9-9.5-16.1-18.7
				C713.1,773.4,698.1,773.4,698.3,783.1L698.3,783.1z"/>
		</g>
	</g>
	<g>
		<g>
			<path fill="#1B933F" d="M703.1,741.7c0.3,12.2,9,22.7,21.6,23.1c9.7,0.3,9.6-14.7,0-15c-0.7,0-1.7-0.2-2-0.4
				c-1.6-0.8-1.5-0.8-2.6-2c-1-1.2-1.9-3.5-1.9-5.8C717.8,732.1,702.8,732,703.1,741.7L703.1,741.7z"/>
		</g>
	</g>
	<g>
		<line fill="#40B56F" x1="729.4" y1="848.8" x2="729.4" y2="717.3"/>
		<g>
			<path fill="#1B933F" d="M736.9,848.8c0-38.3,0-76.6,0-114.9c0-5.5,0-11.1,0-16.6c0-9.7-15-9.7-15,0c0,38.3,0,76.6,0,114.9
				c0,5.5,0,11.1,0,16.6C721.9,858.4,736.9,858.4,736.9,848.8L736.9,848.8z"/>
		</g>
	</g>
	<g>
		<g>
			<path fill="#1B933F" d="M746.5,741c-0.1,8.7-1.4,17.7-5.5,25.5c-2.4,4.5-6.3,9.8-11.5,10c-9.6,0.3-9.7,15.3,0,15
				c24.1-0.8,31.9-31.2,32.1-50.5C761.6,731.3,746.6,731.3,746.5,741L746.5,741z"/>
		</g>
	</g>
	<g>
		<line fill="#B4DCBF" x1="688.9" y1="873.1" x2="688.9" y2="741.7"/>
		<g>
			<path fill="#26CC58" d="M696.4,873.1c0-38.3,0-76.6,0-114.9c0-5.5,0-11.1,0-16.6c0-9.7-15-9.7-15,0c0,38.3,0,76.6,0,114.9
				c0,5.5,0,11.1,0,16.6C681.4,882.8,696.4,882.8,696.4,873.1L696.4,873.1z"/>
		</g>
	</g>
	<g>
		<g>
			<path fill="#26CC58" d="M706,765.3c-0.1,8.7-1.4,17.7-5.5,25.5c-2.4,4.5-6.3,9.8-11.5,10c-9.6,0.3-9.7,15.3,0,15
				c24.1-0.8,31.9-31.2,32.1-50.5C721.1,755.7,706.1,755.7,706,765.3L706,765.3z"/>
		</g>
	</g>
	<g>
		<g>
			<path fill="#26CC58" d="M657.8,750.8c0.1,13.9,2.2,28.2,8.5,40.7c4.5,9,12,17,22.6,17.4c9.7,0.4,9.6-14.6,0-15
				c-1.4-0.1-3-0.9-4.8-2.6c-2.6-2.6-4.4-6-5.8-9.4c-4.2-9.7-5.4-20.6-5.5-31.1C672.7,741.1,657.7,741.1,657.8,750.8L657.8,750.8z"
				/>
		</g>
	</g>
	<g>
		<g>
			<path fill="#1B933F" d="M246.3,743.3c0.3,19.3,10.5,43.1,32.7,43.8c9.7,0.3,9.6-14.7,0-15c-13.2-0.4-17.6-18.5-17.7-28.8
				C261.1,733.7,246.1,733.7,246.3,743.3L246.3,743.3z"/>
		</g>
	</g>
	<g>
		<line fill="#40B56F" x1="283.8" y1="829.6" x2="283.8" y2="698.2"/>
		<g>
			<path fill="#1B933F" d="M291.3,829.6c0-38.3,0-76.6,0-114.9c0-5.5,0-11.1,0-16.6c0-9.7-15-9.7-15,0c0,38.3,0,76.6,0,114.9
				c0,5.5,0,11.1,0,16.6C276.3,839.3,291.3,839.3,291.3,829.6L291.3,829.6z"/>
		</g>
	</g>
	<g>
		<g>
			<path fill="#1B933F" d="M300.8,721.8c-0.1,8.7-1.4,17.7-5.5,25.5c-2.4,4.5-6.3,9.8-11.5,10c-9.6,0.3-9.7,15.3,0,15
				c24.1-0.8,31.9-31.2,32.1-50.5C315.9,712.2,300.9,712.2,300.8,721.8L300.8,721.8z"/>
		</g>
	</g>
	<g>
		<line fill="#B4DCBF" x1="243.3" y1="854" x2="243.3" y2="722.5"/>
		<g>
			<path fill="#26CC58" d="M250.8,854c0-38.3,0-76.6,0-114.9c0-5.5,0-11.1,0-16.6c0-9.7-15-9.7-15,0c0,38.3,0,76.6,0,114.9
				c0,5.5,0,11.1,0,16.6C235.8,863.6,250.8,863.7,250.8,854L250.8,854z"/>
		</g>
	</g>
	<g>
		<g>
			<path fill="#26CC58" d="M260.3,745.2c-0.1,8.7-1.4,17.7-5.5,25.5c-2.4,4.5-6.3,9.8-11.5,10c-9.6,0.3-9.7,15.3,0,15
				c24.1-0.8,31.9-31.2,32.1-50.5C275.4,735.6,260.4,735.6,260.3,745.2L260.3,745.2z"/>
		</g>
	</g>
	<g>
		<g>
			<path fill="#26CC58" d="M212.2,752.7c0.1,13.9,2.2,28.2,8.5,40.7c4.5,9,12,17,22.6,17.4c9.7,0.4,9.6-14.6,0-15
				c-1.4-0.1-3-0.9-4.8-2.6c-2.6-2.6-4.4-6-5.8-9.4c-4.2-9.7-5.4-20.6-5.5-31.1C227.1,743.1,212.1,743,212.2,752.7L212.2,752.7z"/>
		</g>
	</g>
	<g id="spikes">
		
			<rect x="682" y="777.6" transform="matrix(-0.7448 0.6672 -0.6672 -0.7448 1711.9886 901.5591)" fill="#BCFCD0" width="3.2" height="1.1"/>
		
			<rect x="687.1" y="793.4" transform="matrix(0.7816 -0.6237 0.6237 0.7816 -344.8354 602.9254)" fill="#BCFCD0" width="3.2" height="1.1"/>
		
			<rect x="689.3" y="763.7" transform="matrix(-0.6223 0.7828 -0.7828 -0.6223 1719.1119 699.0573)" fill="#BCFCD0" width="3.2" height="1.1"/>
		
			<rect x="686.2" y="743.8" transform="matrix(-0.4436 0.8962 -0.8962 -0.4436 1660.0667 458.1725)" fill="#BCFCD0" width="3.2" height="1.1"/>
		
			<rect x="692.2" y="784.5" transform="matrix(0.891 -0.4541 0.4541 0.891 -280.8387 400.6582)" fill="#BCFCD0" width="3.2" height="1.1"/>
		
			<rect x="680.5" y="756.9" transform="matrix(-0.4677 0.8839 -0.8839 -0.4677 1670.5297 508.8196)" fill="#BCFCD0" width="3.2" height="1.1"/>
		
			<rect x="693.8" y="740.8" transform="matrix(0.9902 0.1394 -0.1394 0.9902 110.1345 -89.6924)" fill="#BCFCD0" width="3.2" height="1.1"/>
		
			<rect x="689.3" y="753.9" transform="matrix(0.1501 0.9887 -0.9887 0.1501 1333.069 -41.8911)" fill="#BCFCD0" width="3.2" height="1.1"/>
		
			<rect x="686.2" y="858.1" transform="matrix(-0.7448 0.6672 -0.6672 -0.7448 1773.0571 1039.2549)" fill="#BCFCD0" width="3.2" height="1.1"/>
		
			<rect x="687.3" y="872.6" transform="matrix(0.7816 -0.6237 0.6237 0.7816 -394.1721 620.369)" fill="#BCFCD0" width="3.2" height="1.1"/>
		
			<rect x="689.3" y="830.6" transform="matrix(-0.6223 0.7828 -0.7828 -0.6223 1771.4159 807.454)" fill="#BCFCD0" width="3.2" height="1.1"/>
		
			<rect x="686.2" y="810.6" transform="matrix(-0.4436 0.8962 -0.8962 -0.4436 1719.9486 554.6328)" fill="#BCFCD0" width="3.2" height="1.1"/>
		
			<rect x="692.2" y="851.4" transform="matrix(0.891 -0.4541 0.4541 0.891 -311.1791 407.944)" fill="#BCFCD0" width="3.2" height="1.1"/>
		
			<rect x="680.5" y="823.7" transform="matrix(-0.4677 0.8839 -0.8839 -0.4677 1729.5878 606.8888)" fill="#BCFCD0" width="3.2" height="1.1"/>
		
			<rect x="693.8" y="807.7" transform="matrix(0.9902 0.1394 -0.1394 0.9902 119.4485 -89.04)" fill="#BCFCD0" width="3.2" height="1.1"/>
		
			<rect x="689.3" y="820.7" transform="matrix(0.1501 0.9887 -0.9887 0.1501 1399.129 14.8958)" fill="#BCFCD0" width="3.2" height="1.1"/>
		
			<rect x="722.5" y="822.4" transform="matrix(-0.7448 0.6672 -0.6672 -0.7448 1812.547 952.8188)" fill="#BCFCD0" width="3.2" height="1.1"/>
		
			<rect x="727.6" y="838.3" transform="matrix(0.7816 -0.6237 0.6237 0.7816 -363.9755 637.9681)" fill="#BCFCD0" width="3.2" height="1.1"/>
		
			<rect x="729.8" y="808.6" transform="matrix(-0.6223 0.7828 -0.7828 -0.6223 1819.8927 740.1426)" fill="#BCFCD0" width="3.2" height="1.1"/>
		
			<rect x="725.5" y="787" transform="matrix(-0.4436 0.8962 -0.8962 -0.4436 1755.4712 485.3125)" fill="#BCFCD0" width="3.2" height="1.1"/>
		
			<rect x="732.7" y="829.4" transform="matrix(0.891 -0.4541 0.4541 0.891 -296.7937 423.9298)" fill="#BCFCD0" width="3.2" height="1.1"/>
		
			<rect x="720.9" y="801.7" transform="matrix(-0.4677 0.8839 -0.8839 -0.4677 1769.5883 538.8798)" fill="#BCFCD0" width="3.2" height="1.1"/>
		
			<rect x="730.8" y="779" transform="matrix(0.9902 0.1394 -0.1394 0.9902 115.822 -94.4799)" fill="#BCFCD0" width="3.2" height="1.1"/>
		
			<rect x="730.8" y="793.4" transform="matrix(0.1501 0.9887 -0.9887 0.1501 1407.4025 -49.3177)" fill="#BCFCD0" width="3.2" height="1.1"/>
		
			<rect x="722.2" y="751.7" transform="matrix(-0.7448 0.6672 -0.6672 -0.7448 1764.9421 829.6116)" fill="#BCFCD0" width="3.2" height="1.1"/>
		
			<rect x="727.3" y="767.6" transform="matrix(0.7816 -0.6237 0.6237 0.7816 -319.9271 622.3759)" fill="#BCFCD0" width="3.2" height="1.1"/>
		
			<rect x="729.5" y="737.9" transform="matrix(-0.6223 0.7828 -0.7828 -0.6223 1764.1479 625.6288)" fill="#BCFCD0" width="3.2" height="1.1"/>
		
			<rect x="726.5" y="718" transform="matrix(-0.4436 0.8962 -0.8962 -0.4436 1694.9835 384.7988)" fill="#BCFCD0" width="3.2" height="1.1"/>
		
			<rect x="732.5" y="758.7" transform="matrix(0.891 -0.4541 0.4541 0.891 -264.7142 416.1089)" fill="#BCFCD0" width="3.2" height="1.1"/>
		
			<rect x="720.7" y="731" transform="matrix(-0.4677 0.8839 -0.8839 -0.4677 1706.734 435.3195)" fill="#BCFCD0" width="3.2" height="1.1"/>
		
			<rect x="734" y="715" transform="matrix(0.9902 0.1394 -0.1394 0.9902 106.9241 -95.5531)" fill="#BCFCD0" width="3.2" height="1.1"/>
		
			<rect x="729.5" y="728" transform="matrix(0.1501 0.9887 -0.9887 0.1501 1341.7068 -103.6371)" fill="#BCFCD0" width="3.2" height="1.1"/>
		
			<rect x="703.7" y="787.7" transform="matrix(-0.7448 0.6672 -0.6672 -0.7448 1756.5046 904.776)" fill="#BCFCD0" width="3.2" height="1.1"/>
		
			<rect x="704" y="799.7" transform="matrix(-0.6405 -0.768 0.768 -0.6405 542.8286 1854.6552)" fill="#BCFCD0" width="3.2" height="1.1"/>
		
			<rect x="710.9" y="773.9" transform="matrix(-0.6223 0.7828 -0.7828 -0.6223 1762.1449 698.5332)" fill="#BCFCD0" width="3.2" height="1.1"/>
		
			<rect x="708" y="750.2" transform="matrix(-0.4436 0.8962 -0.8962 -0.4436 1697.2737 447.938)" fill="#BCFCD0" width="3.2" height="1.1"/>
		
			<rect x="713.8" y="801.7" transform="matrix(0.891 -0.4541 0.4541 0.891 -286.2945 412.3071)" fill="#BCFCD0" width="3.2" height="1.1"/>
		
			<rect x="710.2" y="741.6" transform="matrix(-0.4677 0.8839 -0.8839 -0.4677 1700.6367 460.163)" fill="#BCFCD0" width="3.2" height="1.1"/>
		
			<rect x="715.4" y="752.3" transform="matrix(0.9902 0.1394 -0.1394 0.9902 111.9386 -92.5977)" fill="#BCFCD0" width="3.2" height="1.1"/>
		
			<rect x="710.9" y="764" transform="matrix(0.1501 0.9887 -0.9887 0.1501 1361.4684 -54.6879)" fill="#BCFCD0" width="3.2" height="1.1"/>
		
			<rect x="726" y="851.4" transform="matrix(0.5613 0.8276 -0.8276 0.5613 1024.2634 -228.4045)" fill="#BCFCD0" width="3.2" height="1.1"/>
		
			<rect x="732.6" y="819" transform="matrix(-0.3963 -0.9181 0.9181 -0.3963 272.6863 1818.4778)" fill="#BCFCD0" width="3.2" height="1.1"/>
		
			<rect x="685" y="843.5" transform="matrix(0.8516 0.5242 -0.5242 0.8516 544.395 -234.669)" fill="#BCFCD0" width="3.2" height="1.1"/>
		
			<rect x="665.1" y="788.7" transform="matrix(-0.4436 0.8962 -0.8962 -0.4436 1669.7546 541.8726)" fill="#BCFCD0" width="3.2" height="1.1"/>
		
			<rect x="675.5" y="798.1" transform="matrix(0.891 -0.4541 0.4541 0.891 -288.8354 394.556)" fill="#BCFCD0" width="3.2" height="1.1"/>
		
			<rect x="660.6" y="753" transform="matrix(-0.4677 0.8839 -0.8839 -0.4677 1637.9247 520.7827)" fill="#BCFCD0" width="3.2" height="1.1"/>
		
			<rect x="672.6" y="785.7" transform="matrix(0.9902 0.1394 -0.1394 0.9902 116.181 -86.3081)" fill="#BCFCD0" width="3.2" height="1.1"/>
		
			<rect x="669" y="770.6" transform="matrix(0.1501 0.9887 -0.9887 0.1501 1332.3394 -7.5247)" fill="#BCFCD0" width="3.2" height="1.1"/>
		
			<rect x="745.1" y="779.8" transform="matrix(-0.7448 0.6672 -0.6672 -0.7448 1823.49 863.3994)" fill="#BCFCD0" width="3.2" height="1.1"/>
		
			<rect x="660.6" y="773.9" transform="matrix(0.7816 -0.6237 0.6237 0.7816 -338.4328 582.1099)" fill="#BCFCD0" width="3.2" height="1.1"/>
		
			<rect x="745.1" y="762.1" transform="matrix(0.3896 0.921 -0.921 0.3896 1158.215 -222.1021)" fill="#BCFCD0" width="3.2" height="1.1"/>
		
			<rect x="749.3" y="750.2" transform="matrix(-0.4436 0.8962 -0.8962 -0.4436 1756.848 410.9546)" fill="#BCFCD0" width="3.2" height="1.1"/>
		
			<rect x="740.1" y="771.9" transform="matrix(0.891 -0.4541 0.4541 0.891 -269.8618 421.0086)" fill="#BCFCD0" width="3.2" height="1.1"/>
		
			<rect x="668.2" y="760.2" transform="matrix(-0.4677 0.8839 -0.8839 -0.4677 1655.452 524.6076)" fill="#BCFCD0" width="3.2" height="1.1"/>
		
			<rect x="754" y="742.1" transform="matrix(0.9902 0.1394 -0.1394 0.9902 110.905 -98.0798)" fill="#BCFCD0" width="3.2" height="1.1"/>
		
			<rect x="752.4" y="763.7" transform="matrix(0.1501 0.9887 -0.9887 0.1501 1396.4099 -95.8745)" fill="#BCFCD0" width="3.2" height="1.1"/>
		
			<rect x="235.7" y="759.2" transform="matrix(-0.7448 0.6672 -0.6672 -0.7448 920.9648 1167.212)" fill="#BCFCD0" width="3.2" height="1.1"/>
		
			<rect x="240.8" y="775" transform="matrix(0.7816 -0.6237 0.6237 0.7816 -430.8029 320.526)" fill="#BCFCD0" width="3.2" height="1.1"/>
		
			<rect x="243" y="745.3" transform="matrix(-0.6223 0.7828 -0.7828 -0.6223 980.656 1018.5368)" fill="#BCFCD0" width="3.2" height="1.1"/>
		
			<rect x="239.9" y="725.4" transform="matrix(-0.4436 0.8962 -0.8962 -0.4436 999.2514 831.5603)" fill="#BCFCD0" width="3.2" height="1.1"/>
		
			<rect x="245.9" y="766.1" transform="matrix(0.891 -0.4541 0.4541 0.891 -321.139 195.9904)" fill="#BCFCD0" width="3.2" height="1.1"/>
		
			<rect x="234.2" y="738.4" transform="matrix(-0.4677 0.8839 -0.8839 -0.4677 999.1945 876.2616)" fill="#BCFCD0" width="3.2" height="1.1"/>
		
			<rect x="247.5" y="722.4" transform="matrix(0.9902 0.1394 -0.1394 0.9902 103.2093 -27.6593)" fill="#BCFCD0" width="3.2" height="1.1"/>
		
			<rect x="243" y="735.5" transform="matrix(0.1501 0.9887 -0.9887 0.1501 935.5486 383.7017)" fill="#BCFCD0" width="3.2" height="1.1"/>
		
			<rect x="239.9" y="839.7" transform="matrix(-0.7448 0.6672 -0.6672 -0.7448 982.0333 1304.9078)" fill="#BCFCD0" width="3.2" height="1.1"/>
		
			<rect x="241" y="854.2" transform="matrix(0.7816 -0.6237 0.6237 0.7816 -480.1395 337.9696)" fill="#BCFCD0" width="3.2" height="1.1"/>
		
			<rect x="243" y="812.1" transform="matrix(-0.6223 0.7828 -0.7828 -0.6223 1032.96 1126.9336)" fill="#BCFCD0" width="3.2" height="1.1"/>
		
			<rect x="239.9" y="792.2" transform="matrix(-0.4436 0.8962 -0.8962 -0.4436 1059.1333 928.0206)" fill="#BCFCD0" width="3.2" height="1.1"/>
		
			<rect x="245.9" y="832.9" transform="matrix(0.891 -0.4541 0.4541 0.891 -351.4795 203.2762)" fill="#BCFCD0" width="3.2" height="1.1"/>
		
			<rect x="234.2" y="805.3" transform="matrix(-0.4677 0.8839 -0.8839 -0.4677 1058.2527 974.3308)" fill="#BCFCD0" width="3.2" height="1.1"/>
		
			<rect x="247.5" y="789.2" transform="matrix(0.9902 0.1394 -0.1394 0.9902 112.5233 -27.007)" fill="#BCFCD0" width="3.2" height="1.1"/>
		
			<rect x="243" y="802.3" transform="matrix(0.1501 0.9887 -0.9887 0.1501 1001.6087 440.4886)" fill="#BCFCD0" width="3.2" height="1.1"/>
		
			<rect x="276.2" y="804" transform="matrix(-0.7448 0.6672 -0.6672 -0.7448 1021.5232 1218.4717)" fill="#BCFCD0" width="3.2" height="1.1"/>
		
			<rect x="281.3" y="819.8" transform="matrix(0.7816 -0.6237 0.6237 0.7816 -449.9429 355.5688)" fill="#BCFCD0" width="3.2" height="1.1"/>
		
			<rect x="283.5" y="790.2" transform="matrix(-0.6223 0.7828 -0.7828 -0.6223 1081.4368 1059.6221)" fill="#BCFCD0" width="3.2" height="1.1"/>
		
			<rect x="279.2" y="768.6" transform="matrix(-0.4436 0.8962 -0.8962 -0.4436 1094.6559 858.7003)" fill="#BCFCD0" width="3.2" height="1.1"/>
		
			<rect x="286.4" y="811" transform="matrix(0.891 -0.4541 0.4541 0.891 -337.0941 219.262)" fill="#BCFCD0" width="3.2" height="1.1"/>
		
			<rect x="274.6" y="783.3" transform="matrix(-0.4677 0.8839 -0.8839 -0.4677 1098.2532 906.3218)" fill="#BCFCD0" width="3.2" height="1.1"/>
		
			<rect x="284.5" y="760.6" transform="matrix(0.9902 0.1394 -0.1394 0.9902 108.8968 -32.4468)" fill="#BCFCD0" width="3.2" height="1.1"/>
		
			<rect x="284.5" y="775" transform="matrix(0.1501 0.9887 -0.9887 0.1501 1009.882 376.2751)" fill="#BCFCD0" width="3.2" height="1.1"/>
		
			<rect x="275.9" y="733.3" transform="matrix(-0.7448 0.6672 -0.6672 -0.7448 973.9183 1095.2645)" fill="#BCFCD0" width="3.2" height="1.1"/>
		
			<rect x="281" y="749.1" transform="matrix(0.7816 -0.6237 0.6237 0.7816 -405.8945 339.9765)" fill="#BCFCD0" width="3.2" height="1.1"/>
		
			<rect x="283.2" y="719.5" transform="matrix(-0.6223 0.7828 -0.7828 -0.6223 1025.692 945.1084)" fill="#BCFCD0" width="3.2" height="1.1"/>
		
			<rect x="280.1" y="699.5" transform="matrix(-0.4436 0.8962 -0.8962 -0.4436 1034.1682 758.1866)" fill="#BCFCD0" width="3.2" height="1.1"/>
		
			<rect x="286.2" y="740.3" transform="matrix(0.891 -0.4541 0.4541 0.891 -305.0145 211.4411)" fill="#BCFCD0" width="3.2" height="1.1"/>
		
			<rect x="278" y="712.6" transform="matrix(-0.4677 0.8839 -0.8839 -0.4677 1040.6913 799.5743)" fill="#BCFCD0" width="3.2" height="1.1"/>
		
			<rect x="287.7" y="696.6" transform="matrix(0.9902 0.1394 -0.1394 0.9902 99.9989 -33.52)" fill="#BCFCD0" width="3.2" height="1.1"/>
		
			<rect x="283.2" y="709.6" transform="matrix(0.1501 0.9887 -0.9887 0.1501 944.1864 321.9557)" fill="#BCFCD0" width="3.2" height="1.1"/>
		
			<rect x="257.4" y="769.3" transform="matrix(-0.7448 0.6672 -0.6672 -0.7448 965.4808 1170.4288)" fill="#BCFCD0" width="3.2" height="1.1"/>
		
			<rect x="257.6" y="781.3" transform="matrix(-0.6405 -0.768 0.768 -0.6405 -175.1718 1481.677)" fill="#BCFCD0" width="3.2" height="1.1"/>
		
			<rect x="264.6" y="755.4" transform="matrix(-0.6223 0.7828 -0.7828 -0.6223 1023.689 1018.0127)" fill="#BCFCD0" width="3.2" height="1.1"/>
		
			<rect x="309.4" y="733.8" transform="matrix(-0.4436 0.8962 -0.8962 -0.4436 1107.0704 781.4412)" fill="#BCFCD0" width="3.2" height="1.1"/>
		
			<rect x="267.4" y="783.3" transform="matrix(0.891 -0.4541 0.4541 0.891 -326.5948 207.6393)" fill="#BCFCD0" width="3.2" height="1.1"/>
		
			<rect x="252.2" y="756.9" transform="matrix(-0.4677 0.8839 -0.8839 -0.4677 1041.8918 887.378)" fill="#BCFCD0" width="3.2" height="1.1"/>
		
			<rect x="254" y="745.3" transform="matrix(0.9902 0.1394 -0.1394 0.9902 106.4647 -28.3417)" fill="#BCFCD0" width="3.2" height="1.1"/>
		
			<rect x="264.6" y="745.6" transform="matrix(0.1501 0.9887 -0.9887 0.1501 963.9479 370.9049)" fill="#BCFCD0" width="3.2" height="1.1"/>
		
			<rect x="279.7" y="832.9" transform="matrix(0.5613 0.8276 -0.8276 0.5613 813.2117 132.8898)" fill="#BCFCD0" width="3.2" height="1.1"/>
		
			<rect x="286.3" y="800.6" transform="matrix(-0.3963 -0.9181 0.9181 -0.3963 -333.5881 1382.9972)" fill="#BCFCD0" width="3.2" height="1.1"/>
		
			<rect x="238.7" y="825.1" transform="matrix(0.8516 0.5242 -0.5242 0.8516 468.4945 -3.4342)" fill="#BCFCD0" width="3.2" height="1.1"/>
		
			<rect x="218.8" y="770.3" transform="matrix(-0.4436 0.8962 -0.8962 -0.4436 1008.9394 915.2603)" fill="#BCFCD0" width="3.2" height="1.1"/>
		
			<rect x="229.2" y="779.7" transform="matrix(0.891 -0.4541 0.4541 0.891 -329.1357 189.8882)" fill="#BCFCD0" width="3.2" height="1.1"/>
		
			<rect x="218.1" y="782.1" transform="matrix(-0.4677 0.8839 -0.8839 -0.4677 1014.1638 954.5337)" fill="#BCFCD0" width="3.2" height="1.1"/>
		
			<rect x="226.3" y="767.3" transform="matrix(0.9902 0.1394 -0.1394 0.9902 109.2558 -24.2751)" fill="#BCFCD0" width="3.2" height="1.1"/>
		
			<rect x="222.6" y="752.2" transform="matrix(0.1501 0.9887 -0.9887 0.1501 934.819 418.0681)" fill="#BCFCD0" width="3.2" height="1.1"/>
		
			<rect x="298.8" y="761.4" transform="matrix(-0.7448 0.6672 -0.6672 -0.7448 1032.4661 1129.0522)" fill="#BCFCD0" width="3.2" height="1.1"/>
		
			<rect x="214.3" y="755.4" transform="matrix(0.7816 -0.6237 0.6237 0.7816 -424.4001 299.7106)" fill="#BCFCD0" width="3.2" height="1.1"/>
		
			<rect x="298.8" y="743.7" transform="matrix(0.3896 0.921 -0.921 0.3896 868.813 177.6986)" fill="#BCFCD0" width="3.2" height="1.1"/>
		
			<rect x="303" y="731.8" transform="matrix(-0.4436 0.8962 -0.8962 -0.4436 1096.0327 784.3424)" fill="#BCFCD0" width="3.2" height="1.1"/>
		
			<rect x="293.8" y="753.4" transform="matrix(0.891 -0.4541 0.4541 0.891 -310.1621 216.3408)" fill="#BCFCD0" width="3.2" height="1.1"/>
		
			<rect x="224.7" y="793.9" transform="matrix(-0.4677 0.8839 -0.8839 -0.4677 1034.2791 966.0193)" fill="#BCFCD0" width="3.2" height="1.1"/>
		
			<rect x="307.7" y="719.5" transform="matrix(0.9902 0.1394 -0.1394 0.9902 103.3864 -36.0883)" fill="#BCFCD0" width="3.2" height="1.1"/>
		
			<rect x="306.1" y="745.3" transform="matrix(0.1501 0.9887 -0.9887 0.1501 998.8896 329.7183)" fill="#BCFCD0" width="3.2" height="1.1"/>
	</g>
	<g id="flowers">
		
			<ellipse transform="matrix(0.9512 0.3085 -0.3085 0.9512 233.4027 -40.1941)" fill="#FFE77E" cx="243.8" cy="718.1" rx="4" ry="2.5"/>
		
			<ellipse transform="matrix(0.9512 0.3085 -0.3085 0.9512 234.4679 -42.2891)" fill="#FFE77E" cx="251" cy="720.4" rx="4" ry="2.5"/>
		
			<ellipse transform="matrix(-0.3085 0.9512 -0.9512 -0.3085 1006.2297 699.9205)" fill="#FFE77E" cx="248.7" cy="715.7" rx="4" ry="2.5"/>
		
			<ellipse transform="matrix(-0.3085 0.9512 -0.9512 -0.3085 1010.0015 711.4953)" fill="#FFE77E" cx="246.4" cy="722.9" rx="4" ry="2.5"/>
		
			<ellipse transform="matrix(0.7616 0.6481 -0.6481 0.7616 514.5406 -18.3633)" fill="#FFE77E" cx="282.2" cy="690.2" rx="4" ry="2.5"/>
		<ellipse transform="matrix(0.7616 0.6481 -0.6481 0.7616 519.0674 -20.9148)" fill="#FFE77E" cx="288" cy="695" rx="4" ry="2.5"/>
		
			<ellipse transform="matrix(-0.6481 0.7616 -0.7616 -0.6481 999.4191 917.7963)" fill="#FFE77E" cx="287.6" cy="689.8" rx="4" ry="2.5"/>
		
			<ellipse transform="matrix(-0.6481 0.7616 -0.7616 -0.6481 995.7468 930.9561)" fill="#FFE77E" cx="282.8" cy="695.6" rx="4" ry="2.5"/>
		
			<ellipse transform="matrix(0.8893 -0.4573 0.4573 0.8893 -294.6647 220.7869)" fill="#FFE15C" cx="308.7" cy="719" rx="3" ry="1.9"/>
		
			<ellipse transform="matrix(0.8893 -0.4573 0.4573 0.8893 -292.943 222.7798)" fill="#FFE15C" cx="313.7" cy="716.5" rx="3" ry="1.9"/>
		
			<ellipse transform="matrix(0.4573 0.8893 -0.8893 0.4573 804.2754 112.4269)" fill="#FFE15C" cx="310" cy="715.2" rx="3" ry="1.9"/>
		
			<ellipse transform="matrix(0.4573 0.8893 -0.8893 0.4573 810.0907 112.8516)" fill="#FFE15C" cx="312.6" cy="720.2" rx="3" ry="1.9"/>
		
			<ellipse transform="matrix(0.9862 -0.1658 0.1658 0.9862 -116.207 128.7322)" fill="#FFE15C" cx="713.1" cy="760.5" rx="4.2" ry="2.7"/>
		
			<ellipse transform="matrix(0.9862 -0.1658 0.1658 0.9862 -115.8819 130.0067)" fill="#FFE15C" cx="720.9" cy="759.2" rx="4.2" ry="2.7"/>
		
			<ellipse transform="matrix(0.1658 0.9862 -0.9862 0.1658 1343.2361 -75.9407)" fill="#FFE15C" cx="716.5" cy="756" rx="4.2" ry="2.7"/>
		
			<ellipse transform="matrix(0.1658 0.9862 -0.9862 0.1658 1352.0194 -70.7282)" fill="#FFE15C" cx="717.8" cy="763.8" rx="4.2" ry="2.7"/>
		
			<ellipse transform="matrix(0.9862 -0.1658 0.1658 0.9862 -112.7493 123.3132)" fill="#FFE77E" cx="682.4" cy="737.1" rx="3.5" ry="2.2"/>
		
			<ellipse transform="matrix(0.9862 -0.1658 0.1658 0.9862 -112.4803 124.3677)" fill="#FFE77E" cx="688.8" cy="736" rx="3.5" ry="2.2"/>
		
			<ellipse transform="matrix(0.1658 0.9862 -0.9862 0.1658 1294.786 -63.9348)" fill="#FFE77E" cx="685.2" cy="733.3" rx="3.5" ry="2.2"/>
		
			<ellipse transform="matrix(0.1658 0.9862 -0.9862 0.1658 1302.0538 -59.6216)" fill="#FFE77E" cx="686.3" cy="739.8" rx="3.5" ry="2.2"/>
		
			<ellipse transform="matrix(0.9862 -0.1658 0.1658 0.9862 -111.7503 135.0831)" fill="#FFE15C" cx="753.4" cy="737" rx="4.2" ry="2.7"/>
		
			<ellipse transform="matrix(0.9862 -0.1658 0.1658 0.9862 -111.4251 136.3576)" fill="#FFE15C" cx="761.2" cy="735.7" rx="4.2" ry="2.7"/>
		
			<ellipse transform="matrix(0.1658 0.9862 -0.9862 0.1658 1353.6366 -135.2836)" fill="#FFE15C" cx="756.8" cy="732.4" rx="4.2" ry="2.7"/>
		
			<ellipse transform="matrix(0.1658 0.9862 -0.9862 0.1658 1362.4199 -130.0711)" fill="#FFE15C" cx="758.1" cy="740.2" rx="4.2" ry="2.7"/>
		
			<ellipse transform="matrix(0.8912 -0.4536 0.4536 0.8912 -245.1995 406.0339)" fill="#FFE77E" cx="723.9" cy="714.2" rx="3" ry="1.9"/>
		
			<ellipse transform="matrix(0.8912 -0.4536 0.4536 0.8912 -243.5011 408.0255)" fill="#FFE77E" cx="728.9" cy="711.7" rx="3" ry="1.9"/>
		
			<ellipse transform="matrix(0.4536 0.8912 -0.8912 0.4536 1029.4648 -258.1776)" fill="#FFE77E" cx="725.3" cy="710.4" rx="3" ry="1.9"/>
		
			<ellipse transform="matrix(0.4536 0.8912 -0.8912 0.4536 1035.3132 -257.7129)" fill="#FFE77E" cx="727.8" cy="715.4" rx="3" ry="1.9"/>
	</g>
</g>

<!--+++++++++++++++++++ CLIFF LAYER +++++++++++++++++++-->
<g id="cliff">
	<g id="cliff-base">
		<linearGradient id="SVGID_7_" gradientUnits="userSpaceOnUse" x1="-223.5869" y1="646.525" x2="325.6569" y2="646.525">
			<stop  offset="0" style="stop-color:#8D6A37"/>
			<stop  offset="0.4829" style="stop-color:#8D6A37"/>
			<stop  offset="0.503" style="stop-color:#8B6936"/>
			<stop  offset="0.7892" style="stop-color:#7A5C30"/>
			<stop  offset="1" style="stop-color:#74572E"/>
		</linearGradient>
		<polygon fill="url(#SVGID_7_)" points="-223.6,1046.2 -147,1062.4 -67.9,1062.4 3.3,1046.2 35.3,1054.3 81.5,1062.4 160,1062.4 
			246.3,1046.2 260.7,1032.5 254.3,1008.2 212.7,916.7 180.7,847.7 164.8,787.9 150.4,718.8 163.2,646 152,558.3 163.2,491 
			163.2,461.2 187.1,410.8 214.3,380.9 238.3,337.9 281.5,295 300.6,257.7 325.7,230.7 -223.6,230.7 		"/>
	</g>
	<g id="cliff-shading">
		<linearGradient id="SVGID_8_" gradientUnits="userSpaceOnUse" x1="-154.7723" y1="1062.3799" x2="-154.7723" y2="267.2625">
			<stop  offset="0" style="stop-color:#A57C41"/>
			<stop  offset="1.880986e-02" style="stop-color:#A57C41"/>
			<stop  offset="0.1331" style="stop-color:#A57C41"/>
			<stop  offset="0.1953" style="stop-color:#9E773E;stop-opacity:0.918"/>
			<stop  offset="0.2865" style="stop-color:#8A6836;stop-opacity:0.7979"/>
			<stop  offset="0.3949" style="stop-color:#6A502A;stop-opacity:0.6549"/>
			<stop  offset="0.4366" style="stop-color:#5C4524;stop-opacity:0.6"/>
		</linearGradient>
		<polygon opacity="0.8" fill="url(#SVGID_8_)" points="-204.8,1050.2 -217.2,811.9 -199.7,811.9 -199.7,735.8 -169.7,735.8 
			-179.7,531.4 -152.2,267.3 -111.6,267.3 -92.3,267.3 -92.3,1062.4 -147,1062.4 		"/>
		<linearGradient id="SVGID_9_" gradientUnits="userSpaceOnUse" x1="-78.158" y1="267.2625" x2="-78.158" y2="1062.3799">
			<stop  offset="0" style="stop-color:#A57C41"/>
			<stop  offset="0.1953" style="stop-color:#96713B;stop-opacity:0.9439"/>
			<stop  offset="1" style="stop-color:#5C4524;stop-opacity:0.7131"/>
		</linearGradient>
		<polygon fill="url(#SVGID_9_)" points="-137,267.3 -129.3,468.9 -111.6,468.9 -111.6,688.1 -98.4,688.1 -92.3,1062.4 
			-67.9,1062.4 -19.3,1051.3 -19.3,267.3 		"/>
		<linearGradient id="SVGID_10_" gradientUnits="userSpaceOnUse" x1="-38.9531" y1="276.7984" x2="-38.9531" y2="1062.3799">
			<stop  offset="0" style="stop-color:#74572E;stop-opacity:0.8"/>
			<stop  offset="0.2639" style="stop-color:#84663A;stop-opacity:0.7736"/>
			<stop  offset="0.7802" style="stop-color:#AF8B59;stop-opacity:0.722"/>
			<stop  offset="1" style="stop-color:#C39D67;stop-opacity:0.7"/>
		</linearGradient>
		<polygon fill="url(#SVGID_10_)" points="14.4,276.8 14.4,1049 3.3,1046.2 -67.9,1062.4 -42.7,752.6 -60.9,752.6 -36.8,597.9 
			-54.9,597.9 -54.9,458.4 -82.7,410.1 -92.3,276.8 		"/>
		<linearGradient id="SVGID_11_" gradientUnits="userSpaceOnUse" x1="77.6887" y1="267.2625" x2="77.6887" y2="1062.3799">
			<stop  offset="1.020408e-02" style="stop-color:#C39D67"/>
			<stop  offset="0.1729" style="stop-color:#B18D5A"/>
			<stop  offset="0.5191" style="stop-color:#907042"/>
			<stop  offset="0.8072" style="stop-color:#7B5E33"/>
			<stop  offset="1" style="stop-color:#74572E"/>
		</linearGradient>
		<polygon opacity="0.5" fill="url(#SVGID_11_)" points="120.1,267.3 92.1,474.9 106.1,474.9 81.7,587.6 94.2,587.6 81.7,818 
			100.9,1062.4 81.5,1062.4 35.3,1054.1 35.3,286.7 		"/>
		<linearGradient id="SVGID_12_" gradientUnits="userSpaceOnUse" x1="134.658" y1="735.7905" x2="134.658" y2="1062.3799">
			<stop  offset="0" style="stop-color:#C39D67"/>
			<stop  offset="0.3487" style="stop-color:#AB8755"/>
			<stop  offset="1" style="stop-color:#74572E"/>
		</linearGradient>
		<polygon opacity="0.67" fill="url(#SVGID_12_)" points="120.1,1062.4 138.1,849.1 129.1,818.3 149.2,735.8 149.2,1062.4 		"/>
		<linearGradient id="SVGID_13_" gradientUnits="userSpaceOnUse" x1="174.2868" y1="267.2625" x2="174.2868" y2="436.8979">
			<stop  offset="5.102041e-03" style="stop-color:#C39D67;stop-opacity:0.8"/>
			<stop  offset="0.577" style="stop-color:#937344;stop-opacity:0.8"/>
			<stop  offset="1" style="stop-color:#74572E;stop-opacity:0.8"/>
		</linearGradient>
		<polygon opacity="0.8" fill="url(#SVGID_13_)" points="186.9,267.3 186.9,402.5 161.6,436.9 161.6,270.3 		"/>
		<linearGradient id="SVGID_14_" gradientUnits="userSpaceOnUse" x1="43.9523" y1="289.1464" x2="43.9523" y2="1056.6619">
			<stop  offset="0" style="stop-color:#BA8E4E"/>
			<stop  offset="8.679098e-02" style="stop-color:#AD8448;stop-opacity:0.9826"/>
			<stop  offset="0.294" style="stop-color:#94703D;stop-opacity:0.9412"/>
			<stop  offset="0.5101" style="stop-color:#826234;stop-opacity:0.898"/>
			<stop  offset="0.7385" style="stop-color:#775A30;stop-opacity:0.8523"/>
			<stop  offset="1" style="stop-color:#74572E;stop-opacity:0.8"/>
		</linearGradient>
		<polygon fill="url(#SVGID_14_)" points="73.5,289.1 40.2,619.9 63,619.9 56.8,1056.7 14.4,1049 14.4,303.3 		"/>
		<polygon opacity="0.28" fill="#BA8E4E" points="-162.7,293.2 -186,513.4 -186,297 		"/>
		<polygon opacity="0.67" fill="#74572E" points="-186,297 -186,619.9 -203.3,619.9 -223.6,303.3 		"/>
		<polygon opacity="0.67" fill="#8D6938" points="160,260.7 160,432.2 145.2,454.9 152.6,483.3 125.7,524.7 125.7,264.2 		"/>
		<polygon fill="#8D6937" points="4.1,303.3 4.1,547.1 20.1,524.7 26.4,498.5 51,293.7 		"/>
		<polygon fill="#8D6937" points="-42.7,299.4 -34.9,399.4 -22.4,420.4 4.1,458.4 4.1,303.3 		"/>
		<polygon fill="#8B6736" points="3.3,1046.2 3.3,883.1 -19.3,903.7 -19.3,954.1 -31.8,1013.8 -42.7,1056.7 		"/>
		<polygon opacity="0.67" fill="#886535" points="-147,1062.4 -147,969.9 -174,1056.7 		"/>
		<linearGradient id="SVGID_15_" gradientUnits="userSpaceOnUse" x1="149.2002" y1="920.4794" x2="149.2002" y2="1062.3799">
			<stop  offset="0" style="stop-color:#C39D67;stop-opacity:0.6"/>
			<stop  offset="0.3487" style="stop-color:#AB8755;stop-opacity:0.7395"/>
			<stop  offset="1" style="stop-color:#74572E"/>
		</linearGradient>
		<polygon fill="url(#SVGID_15_)" points="160,1062.4 160.3,920.5 149.2,931.7 138.1,1062.4 		"/>
		<polygon opacity="0.67" fill="#8D6938" points="171.1,1056.7 171.1,857 189,892.5 189,920.5 206.8,941 206.8,969.9 212.6,1052.5 
			171.1,1060.3 		"/>
		<polygon fill="#8B6736" points="4.1,958.6 35.3,1054.3 3.3,1046.2 		"/>
		<linearGradient id="SVGID_16_" gradientUnits="userSpaceOnUse" x1="-129.2893" y1="842.1274" x2="-129.2893" y2="1062.3799">
			<stop  offset="0" style="stop-color:#74572E"/>
			<stop  offset="0.2135" style="stop-color:#7A5B31;stop-opacity:0.9359"/>
			<stop  offset="0.4854" style="stop-color:#896838;stop-opacity:0.8544"/>
			<stop  offset="0.7874" style="stop-color:#A37C44;stop-opacity:0.7638"/>
			<stop  offset="1" style="stop-color:#BA8E4E;stop-opacity:0.7"/>
		</linearGradient>
		<polygon opacity="0.67" fill="url(#SVGID_16_)" points="-147,1062.4 -147,868.7 -130.6,842.1 -119.4,857 -111.6,991.4 
			-111.6,1062.4 		"/>
	</g>
	<linearGradient id="cliff-top_1_" gradientUnits="userSpaceOnUse" x1="51.035" y1="303.2805" x2="51.035" y2="204.231">
		<stop  offset="0" style="stop-color:#BA8E4E"/>
		<stop  offset="0.4361" style="stop-color:#B88C4D"/>
		<stop  offset="0.6587" style="stop-color:#B08649"/>
		<stop  offset="0.8325" style="stop-color:#A37B42"/>
		<stop  offset="0.981" style="stop-color:#906C39"/>
		<stop  offset="1" style="stop-color:#8D6A37"/>
	</linearGradient>
	<polygon id="cliff-top" fill="url(#cliff-top_1_)" points="-223.6,215.5 -161.2,208.7 -33.3,215.5 44.4,208.7 120.6,204.2 
		254.3,209.9 319,222.2 325.7,231.2 319,241.4 251.4,267.3 206.8,267.3 109.1,281.9 4.1,303.3 -116.7,293.2 -162.7,293.2 
		-223.6,303.3 	"/>
</g>

<!--+++++++++++++++++++ SUN LAYER +++++++++++++++++++-->
<g id="sun">
	<radialGradient id="SVGID_17_" cx="685.2766" cy="112.8058" r="53.3616" gradientUnits="userSpaceOnUse">
		<stop  offset="0" style="stop-color:#FFEDA0"/>
		<stop  offset="1" style="stop-color:#FFE15C"/>
	</radialGradient>
	<circle fill="url(#SVGID_17_)" cx="685.3" cy="112.8" r="53.4"/>
	<g id="sun-rays">
		<polygon opacity="0.6" fill="#FFF4C2" points="672,52.3 698.5,52.3 685.3,22 		"/>
		<polygon opacity="0.6" fill="#FFF4C2" points="698.5,172.4 672,172.4 685.3,202.8 		"/>
		<polygon opacity="0.6" fill="#FFF4C2" points="744.3,99.6 744.3,126 778,112.8 		"/>
		<polygon opacity="0.6" fill="#FFF4C2" points="624.2,126 624.2,99.6 590.5,112.8 		"/>
		<polygon opacity="0.6" fill="#FFF4C2" points="719.1,63 737.8,81.7 754,46.8 		"/>
		<polygon opacity="0.6" fill="#FFF4C2" points="653.2,166.3 634.5,147.6 618.3,182.4 		"/>
		<polygon opacity="0.6" fill="#FFF4C2" points="633,79.2 651.7,60.5 616.5,44 		"/>
		<polygon opacity="0.6" fill="#FFF4C2" points="736.9,145.7 718.2,164.4 753.5,181 		"/>
	</g>
</g>
</svg>
