<?xml version="1.0" encoding="utf-8"?>
<!-- Generator: Adobe Illustrator 19.0.1, SVG Export Plug-In . SVG Version: 6.00 Build 0)  -->
<!DOCTYPE svg PUBLIC "-//W3C//DTD SVG 1.1//EN" "http://www.w3.org/Graphics/SVG/1.1/DTD/svg11.dtd">
<svg version="1.1" id="cacti-svg" xmlns="http://www.w3.org/2000/svg" xmlns:xlink="http://www.w3.org/1999/xlink" x="0px" y="0px"
	 viewBox="0 0 125 50" enable-background="new 0 0 125 50" xml:space="preserve">
<g id="cacti-arms">
	<g>
		<g>
			<path fill="#1B933F" d="M108.9,25.1c0.1,4,2.9,7.5,7.1,7.7c2.4,0.1,2.4-3.7,0-3.8c-2.1-0.1-3.3-2-3.3-3.9
				C112.5,22.7,108.8,22.6,108.9,25.1L108.9,25.1z"/>
		</g>
	</g>
	<g>
		<g>
			<path fill="#1B933F" d="M109.9,15.9c0.1,2.8,2.1,5.2,5,5.3c1,0,1.9-0.9,1.9-1.9c0-1-0.9-1.8-1.9-1.9c-0.6,0,0.4,0-0.2,0
				c-0.1,0-0.1,0-0.2,0c0.1,0.1,0.2,0.1,0,0c-0.1-0.1-0.3-0.1-0.4-0.2c0.3,0.2-0.1-0.2-0.2-0.2c0.2,0.3-0.3-0.6-0.2-0.3
				c-0.1-0.2-0.1-0.4-0.2-0.6c0.1,0.3,0-0.2,0-0.3c0-1-0.8-1.9-1.9-1.9C110.8,14.1,109.9,14.9,109.9,15.9L109.9,15.9z"/>
		</g>
	</g>
	<g>
		<line fill="#40B56F" x1="115.9" y1="39.6" x2="115.9" y2="10.6"/>
		<g>
			<path fill="#1B933F" d="M117.8,39.6c0-9.7,0-19.3,0-29c0-2.4-3.8-2.4-3.8,0c0,9.7,0,19.3,0,29C114.1,42,117.8,42,117.8,39.6
				L117.8,39.6z"/>
		</g>
	</g>
	<g>
		<g>
			<path fill="#1B933F" d="M119.5,15.8c0,2.1-0.6,7.4-3.5,7.6c-2.4,0.1-2.4,3.9,0,3.8c5.5-0.3,7.2-6.9,7.3-11.4
				C123.3,13.4,119.5,13.4,119.5,15.8L119.5,15.8z"/>
		</g>
	</g>
	<g>
		<line fill="#B4DCBF" x1="107" y1="44.9" x2="107" y2="15.9"/>
		<g>
			<path fill="#26CC58" d="M108.9,44.9c0-9.7,0-19.3,0-29c0-2.4-3.8-2.4-3.8,0c0,9.7,0,19.3,0,29C105.1,47.3,108.9,47.3,108.9,44.9
				L108.9,44.9z"/>
		</g>
	</g>
	<g>
		<g>
			<path fill="#26CC58" d="M110.6,21.2c0,2.1-0.6,7.4-3.5,7.6c-2.4,0.1-2.4,3.9,0,3.8c5.5-0.3,7.2-6.9,7.3-11.4
				C114.3,18.7,110.6,18.7,110.6,21.2L110.6,21.2z"/>
		</g>
	</g>
	<g>
		<g>
			<path fill="#26CC58" d="M99.9,18c0.1,4.5,1.2,12.6,7.1,13c2.4,0.2,2.4-3.6,0-3.8c-1.2-0.1-2-2.1-2.3-3c-0.7-2-1-4.1-1-6.3
				C103.6,15.5,99.9,15.5,99.9,18L99.9,18z"/>
		</g>
	</g>
	<g>
		<g>
			<path fill="#1B933F" d="M9.2,16.3c0.1,4.4,2.4,9.6,7.4,9.9c2.4,0.1,2.4-3.6,0-3.8c-2.8-0.1-3.6-3.9-3.7-6.1
				C12.9,13.9,9.2,13.9,9.2,16.3L9.2,16.3z"/>
		</g>
	</g>
	<g>
		<line fill="#40B56F" x1="17.7" y1="35.3" x2="17.7" y2="6.4"/>
		<g>
			<path fill="#1B933F" d="M19.6,35.3c0-9.7,0-19.3,0-29c0-2.4-3.7-2.4-3.7,0c0,9.7,0,19.3,0,29C15.8,37.7,19.6,37.7,19.6,35.3
				L19.6,35.3z"/>
		</g>
	</g>
	<g>
		<g>
			<path fill="#1B933F" d="M21.3,11.6c0,2.1-0.6,7.4-3.5,7.6c-2.4,0.1-2.4,3.9,0,3.8c5.5-0.3,7.2-6.9,7.3-11.4
				C25,9.2,21.3,9.2,21.3,11.6L21.3,11.6z"/>
		</g>
	</g>
	<g>
		<line fill="#B4DCBF" x1="8.8" y1="40.7" x2="8.8" y2="11.7"/>
		<g>
			<path fill="#26CC58" d="M10.7,40.7c0-9.7,0-19.3,0-29c0-2.4-3.8-2.4-3.8,0c0,9.7,0,19.3,0,29C6.9,43.1,10.7,43.1,10.7,40.7
				L10.7,40.7z"/>
		</g>
	</g>
	<g>
		<g>
			<path fill="#26CC58" d="M12.3,16.7c0,2.1-0.6,7.4-3.5,7.6c-2.4,0.1-2.4,3.9,0,3.8c5.5-0.3,7.2-6.9,7.3-11.4
				C16.1,14.3,12.4,14.3,12.3,16.7L12.3,16.7z"/>
		</g>
	</g>
	<g>
		<g>
			<path fill="#26CC58" d="M1.7,18.4c0.1,4.5,1.2,12.6,7.1,13c2.4,0.2,2.4-3.6,0-3.8c-1.2-0.1-2-2.1-2.3-3c-0.7-2-1-4.1-1-6.3
				C5.4,16,1.7,16,1.7,18.4L1.7,18.4z"/>
		</g>
	</g>
</g>
<g id="cacti-spikes">
	
		<rect x="105.5" y="23.9" transform="matrix(-0.7448 0.6672 -0.6672 -0.7448 200.6775 -28.7849)" fill="#BCFCD0" width="0.7" height="0.2"/>
	
		<rect x="105.9" y="26.5" transform="matrix(0.7816 -0.6237 0.6237 0.7816 6.6289 72.1071)" fill="#BCFCD0" width="0.7" height="0.2"/>
	
		<rect x="107.1" y="20.8" transform="matrix(-0.6223 0.7828 -0.7828 -0.6223 190.6957 -50.1579)" fill="#BCFCD0" width="0.7" height="0.2"/>
	
		<rect x="106.4" y="16.4" transform="matrix(-0.4436 0.8962 -0.8962 -0.4436 168.9589 -71.8117)" fill="#BCFCD0" width="0.7" height="0.2"/>
	
		<rect x="107.7" y="25.4" transform="matrix(0.891 -0.4541 0.4541 0.891 0.2012 51.8652)" fill="#BCFCD0" width="0.7" height="0.2"/>
	
		<rect x="105.1" y="19.3" transform="matrix(-0.4677 0.8839 -0.8839 -0.4677 172.0043 -64.7538)" fill="#BCFCD0" width="0.7" height="0.2"/>
	
		<rect x="108.1" y="15.8" transform="matrix(0.9902 0.1394 -0.1394 0.9902 3.2725 -14.96)" fill="#BCFCD0" width="0.7" height="0.2"/>
	
		<rect x="107.1" y="18.6" transform="matrix(0.1501 0.9887 -0.9887 0.1501 109.864 -90.2898)" fill="#BCFCD0" width="0.7" height="0.2"/>
	
		<rect x="105.8" y="41.6" transform="matrix(-0.7448 0.6672 -0.6672 -0.7448 212.9827 2.0055)" fill="#BCFCD0" width="0.7" height="0.2"/>
	
		<rect x="106" y="44.8" transform="matrix(-0.3387 -0.9409 0.9409 -0.3387 100.1105 160.2017)" fill="#BCFCD0" width="0.7" height="0.2"/>
	
		<rect x="107.1" y="35.5" transform="matrix(-0.2442 0.9697 -0.9697 -0.2442 168.2626 -59.8344)" fill="#BCFCD0" width="0.7" height="0.2"/>
	
		<rect x="106.4" y="31.1" transform="matrix(-0.4436 0.8962 -0.8962 -0.4436 182.1572 -50.5514)" fill="#BCFCD0" width="0.7" height="0.2"/>
	
		<rect x="107.7" y="40.1" transform="matrix(0.891 -0.4541 0.4541 0.891 -6.4859 53.471)" fill="#BCFCD0" width="0.7" height="0.2"/>
	
		<rect x="105.1" y="34" transform="matrix(-0.4677 0.8839 -0.8839 -0.4677 185.021 -43.1389)" fill="#BCFCD0" width="0.7" height="0.2"/>
	
		<rect x="108.1" y="30.5" transform="matrix(0.9902 0.1394 -0.1394 0.9902 5.3253 -14.8162)" fill="#BCFCD0" width="0.7" height="0.2"/>
	
		<rect x="107.1" y="33.4" transform="matrix(0.1501 0.9887 -0.9887 0.1501 124.4239 -77.7737)" fill="#BCFCD0" width="0.7" height="0.2"/>
	
		<rect x="114.4" y="33.7" transform="matrix(-0.7448 0.6672 -0.6672 -0.7448 222.8411 -17.487)" fill="#BCFCD0" width="0.7" height="0.2"/>
	
		<rect x="114.7" y="36.2" transform="matrix(0.4224 0.9064 -0.9064 0.4224 99.3756 -83.2688)" fill="#BCFCD0" width="0.7" height="0.2"/>
	
		<rect x="116" y="30.7" transform="matrix(-0.6223 0.7828 -0.7828 -0.6223 212.9082 -41.1025)" fill="#BCFCD0" width="0.7" height="0.2"/>
	
		<rect x="115.1" y="25.9" transform="matrix(-0.4436 0.8962 -0.8962 -0.4436 189.9866 -65.8299)" fill="#BCFCD0" width="0.7" height="0.2"/>
	
		<rect x="116.7" y="35.3" transform="matrix(0.891 -0.4541 0.4541 0.891 -3.3153 56.9944)" fill="#BCFCD0" width="0.7" height="0.2"/>
	
		<rect x="114.1" y="29.2" transform="matrix(-0.4677 0.8839 -0.8839 -0.4677 193.8373 -58.1284)" fill="#BCFCD0" width="0.7" height="0.2"/>
	
		<rect x="116.2" y="24.2" transform="matrix(0.9902 0.1394 -0.1394 0.9902 4.526 -16.0152)" fill="#BCFCD0" width="0.7" height="0.2"/>
	
		<rect x="116.2" y="27.3" transform="matrix(0.1501 0.9887 -0.9887 0.1501 126.2474 -91.9267)" fill="#BCFCD0" width="0.7" height="0.2"/>
	
		<rect x="114.4" y="18.2" transform="matrix(-0.7448 0.6672 -0.6672 -0.7448 212.3487 -44.6425)" fill="#BCFCD0" width="0.7" height="0.2"/>
	
		<rect x="115.5" y="21.7" transform="matrix(0.7816 -0.6237 0.6237 0.7816 11.713 76.9995)" fill="#BCFCD0" width="0.7" height="0.2"/>
	
		<rect x="116" y="15.1" transform="matrix(-0.6223 0.7828 -0.7828 -0.6223 200.6218 -66.3419)" fill="#BCFCD0" width="0.7" height="0.2"/>
	
		<rect x="115.3" y="10.7" transform="matrix(-0.4436 0.8962 -0.8962 -0.4436 176.6548 -87.9837)" fill="#BCFCD0" width="0.7" height="0.2"/>
	
		<rect x="116.6" y="19.7" transform="matrix(0.891 -0.4541 0.4541 0.891 3.7552 55.2706)" fill="#BCFCD0" width="0.7" height="0.2"/>
	
		<rect x="114.5" y="13.6" transform="matrix(-0.4677 0.8839 -0.8839 -0.4677 180.6314 -81.3436)" fill="#BCFCD0" width="0.7" height="0.2"/>
	
		<rect x="116.9" y="10.1" transform="matrix(0.9902 0.1394 -0.1394 0.9902 2.5649 -16.2517)" fill="#BCFCD0" width="0.7" height="0.2"/>
	
		<rect x="116" y="12.9" transform="matrix(0.1501 0.9887 -0.9887 0.1501 111.7678 -103.8989)" fill="#BCFCD0" width="0.7" height="0.2"/>
	
		<rect x="110.3" y="26.1" transform="matrix(-0.7448 0.6672 -0.6672 -0.7448 210.4891 -28.0758)" fill="#BCFCD0" width="0.7" height="0.2"/>
	
		<rect x="109.9" y="29.4" transform="matrix(-0.6405 -0.768 0.768 -0.6405 158.1668 133.0873)" fill="#BCFCD0" width="0.7" height="0.2"/>
	
		<rect x="111.9" y="23" transform="matrix(-0.6223 0.7828 -0.7828 -0.6223 200.1803 -50.2734)" fill="#BCFCD0" width="0.7" height="0.2"/>
	
		<rect x="111.7" y="18.3" transform="matrix(0.9982 5.987414e-02 -5.987414e-02 0.9982 1.3027 -6.6757)" fill="#BCFCD0" width="0.7" height="0.2"/>
	
		<rect x="112.5" y="29.2" transform="matrix(0.891 -0.4541 0.4541 0.891 -1.0012 54.4327)" fill="#BCFCD0" width="0.7" height="0.2"/>
	
		<rect x="110.9" y="15.5" transform="matrix(-0.4677 0.8839 -0.8839 -0.4677 177.0004 -75.4273)" fill="#BCFCD0" width="0.7" height="0.2"/>
	
		<rect x="112.1" y="16.6" transform="matrix(0.366 0.9306 -0.9306 0.366 86.8127 -94.0135)" fill="#BCFCD0" width="0.7" height="0.2"/>
	
		<rect x="111.9" y="20.9" transform="matrix(0.1501 0.9887 -0.9887 0.1501 116.1233 -93.1103)" fill="#BCFCD0" width="0.7" height="0.2"/>
	
		<rect x="115.2" y="40.1" transform="matrix(0.5613 0.8276 -0.8276 0.5613 83.9904 -77.9621)" fill="#BCFCD0" width="0.7" height="0.2"/>
	
		<rect x="116.6" y="33" transform="matrix(-0.3963 -0.9181 0.9181 -0.3963 132.9488 153.6534)" fill="#BCFCD0" width="0.7" height="0.2"/>
	
		<rect x="106.2" y="38.4" transform="matrix(0.8516 0.5242 -0.5242 0.8516 35.9967 -50.1177)" fill="#BCFCD0" width="0.7" height="0.2"/>
	
		<rect x="102.9" y="27.6" transform="matrix(-0.4436 0.8962 -0.8962 -0.4436 173.8725 -52.4416)" fill="#BCFCD0" width="0.7" height="0.2"/>
	
		<rect x="104.7" y="28.6" transform="matrix(0.891 -0.4541 0.4541 0.891 -1.5893 50.8448)" fill="#BCFCD0" width="0.7" height="0.2"/>
	
		<rect x="101" y="17.3" transform="matrix(-0.4677 0.8839 -0.8839 -0.4677 164.1669 -63.9309)" fill="#BCFCD0" width="0.7" height="0.2"/>
	
		<rect x="103.9" y="25.4" transform="matrix(0.9902 0.1394 -0.1394 0.9902 4.5787 -14.2778)" fill="#BCFCD0" width="0.7" height="0.2"/>
	
		<rect x="102.6" y="22.3" transform="matrix(0.1501 0.9887 -0.9887 0.1501 109.7031 -82.7153)" fill="#BCFCD0" width="0.7" height="0.2"/>
	
		<rect x="119.4" y="24.4" transform="matrix(-0.7448 0.6672 -0.6672 -0.7448 225.253 -37.1955)" fill="#BCFCD0" width="0.7" height="0.2"/>
	
		<rect x="100.8" y="23" transform="matrix(0.9635 -0.2678 0.2678 0.9635 -2.5088 27.9234)" fill="#BCFCD0" width="0.7" height="0.2"/>
	
		<rect x="119.4" y="20.5" transform="matrix(0.3896 0.921 -0.921 0.3896 92.0434 -97.7172)" fill="#BCFCD0" width="0.7" height="0.2"/>
	
		<rect x="120.3" y="17.8" transform="matrix(-0.4436 0.8962 -0.8962 -0.4436 190.29 -82.2188)" fill="#BCFCD0" width="0.7" height="0.2"/>
	
		<rect x="118.3" y="22.6" transform="matrix(0.891 -0.4541 0.4541 0.891 2.6206 56.3505)" fill="#BCFCD0" width="0.7" height="0.2"/>
	
		<rect x="102.4" y="19.2" transform="matrix(-0.4677 0.8839 -0.8839 -0.4677 167.9012 -62.5691)" fill="#BCFCD0" width="0.7" height="0.2"/>
	
		<rect x="121.4" y="16" transform="matrix(0.9902 0.1394 -0.1394 0.9902 3.4423 -16.8086)" fill="#BCFCD0" width="0.7" height="0.2"/>
	
		<rect x="121" y="20.8" transform="matrix(0.1501 0.9887 -0.9887 0.1501 123.8246 -102.188)" fill="#BCFCD0" width="0.7" height="0.2"/>
	
		<rect x="7.8" y="20.2" transform="matrix(-0.7448 0.6672 -0.6672 -0.7448 27.7808 30.0946)" fill="#BCFCD0" width="0.7" height="0.2"/>
	
		<rect x="8.2" y="24.4" transform="matrix(0.7816 -0.6237 0.6237 0.7816 -13.4125 10.7111)" fill="#BCFCD0" width="0.7" height="0.2"/>
	
		<rect x="9.4" y="16.7" transform="matrix(-0.6223 0.7828 -0.7828 -0.6223 29.0097 19.739)" fill="#BCFCD0" width="0.7" height="0.2"/>
	
		<rect x="8" y="12.4" transform="matrix(-0.4436 0.8962 -0.8962 -0.4436 23.3119 10.4849)" fill="#BCFCD0" width="0.7" height="0.2"/>
	
		<rect x="8.7" y="22" transform="matrix(-0.5881 -0.8088 0.8088 -0.5881 -3.4915 42.4523)" fill="#BCFCD0" width="0.7" height="0.2"/>
	
		<rect x="7.4" y="15.9" transform="matrix(0.6744 0.7383 -0.7383 0.6744 14.3626 -0.5398)" fill="#BCFCD0" width="0.7" height="0.2"/>
	
		<rect x="9.7" y="11.7" transform="matrix(0.9902 0.1394 -0.1394 0.9902 1.7461 -1.2876)" fill="#BCFCD0" width="0.7" height="0.2"/>
	
		<rect x="9.6" y="14.1" transform="matrix(0.1501 0.9887 -0.9887 0.1501 22.5621 2.2658)" fill="#BCFCD0" width="0.7" height="0.2"/>
	
		<rect x="7.6" y="37.5" transform="matrix(0.3819 0.9242 -0.9242 0.3819 39.7303 15.9229)" fill="#BCFCD0" width="0.7" height="0.2"/>
	
		<rect x="8.3" y="40.7" transform="matrix(0.7816 -0.6237 0.6237 0.7816 -23.5986 14.3149)" fill="#BCFCD0" width="0.7" height="0.2"/>
	
		<rect x="8.1" y="31.5" transform="matrix(0.9287 0.3709 -0.3709 0.9287 12.3176 -0.8692)" fill="#BCFCD0" width="0.7" height="0.2"/>
	
		<rect x="8" y="27.1" transform="matrix(-0.4436 0.8962 -0.8962 -0.4436 36.5102 31.7452)" fill="#BCFCD0" width="0.7" height="0.2"/>
	<rect x="9.4" y="36.1" transform="matrix(0.891 -0.4541 0.4541 0.891 -15.3683 8.3612)" fill="#BCFCD0" width="0.7" height="0.2"/>
	
		<rect x="6.8" y="30" transform="matrix(-0.4677 0.8839 -0.8839 -0.4677 37.0553 37.8472)" fill="#BCFCD0" width="0.7" height="0.2"/>
	
		<rect x="9.7" y="26.9" transform="matrix(0.9902 0.1394 -0.1394 0.9902 3.8605 -1.1395)" fill="#BCFCD0" width="0.7" height="0.2"/>
	
		<rect x="8.7" y="29.3" transform="matrix(0.1501 0.9887 -0.9887 0.1501 36.8084 16.0291)" fill="#BCFCD0" width="0.7" height="0.2"/>
	
		<rect x="16.7" y="28.6" transform="matrix(-0.7448 0.6672 -0.6672 -0.7448 48.9141 38.6984)" fill="#BCFCD0" width="0.7" height="0.2"/>
	
		<rect x="18" y="33.8" transform="matrix(0.7816 -0.6237 0.6237 0.7816 -17.1632 18.8887)" fill="#BCFCD0" width="0.7" height="0.2"/>
	
		<rect x="18.3" y="26.4" transform="matrix(0.7613 0.6484 -0.6484 0.7613 21.6606 -5.768)" fill="#BCFCD0" width="0.7" height="0.2"/>
	
		<rect x="16.7" y="21.9" transform="matrix(-0.4436 0.8962 -0.8962 -0.4436 44.3395 16.4666)" fill="#BCFCD0" width="0.7" height="0.2"/>
	
		<rect x="17.4" y="31.4" transform="matrix(0.891 -0.4541 0.4541 0.891 -12.3941 11.508)" fill="#BCFCD0" width="0.7" height="0.2"/>
	
		<rect x="16.8" y="25.6" transform="matrix(-0.4677 0.8839 -0.8839 -0.4677 47.8803 22.5303)" fill="#BCFCD0" width="0.7" height="0.2"/>
	
		<rect x="17.9" y="20.1" transform="matrix(0.9902 0.1394 -0.1394 0.9902 2.9997 -2.3428)" fill="#BCFCD0" width="0.7" height="0.2"/>
	
		<rect x="17.9" y="23.3" transform="matrix(0.1501 0.9887 -0.9887 0.1501 38.6319 1.8762)" fill="#BCFCD0" width="0.7" height="0.2"/>
	
		<rect x="16" y="14.1" transform="matrix(-0.7448 0.6672 -0.6672 -0.7448 38.003 13.9088)" fill="#BCFCD0" width="0.7" height="0.2"/>
	
		<rect x="17.1" y="17.6" transform="matrix(0.7816 -0.6237 0.6237 0.7816 -7.2346 14.7573)" fill="#BCFCD0" width="0.7" height="0.2"/>
	
		<rect x="18" y="13" transform="matrix(-4.156076e-02 0.9991 -0.9991 -4.156076e-02 32.2991 -4.6705)" fill="#BCFCD0" width="0.7" height="0.2"/>
	
		<rect x="16.9" y="6.7" transform="matrix(-0.4436 0.8962 -0.8962 -0.4436 31.0077 -5.6871)" fill="#BCFCD0" width="0.7" height="0.2"/>
	
		<rect x="18.2" y="15.6" transform="matrix(0.891 -0.4541 0.4541 0.891 -5.1272 10.1608)" fill="#BCFCD0" width="0.7" height="0.2"/>
	
		<rect x="16.4" y="9.5" transform="matrix(-0.4677 0.8839 -0.8839 -0.4677 33.1847 -0.67)" fill="#BCFCD0" width="0.7" height="0.2"/>
	<rect x="18.6" y="6" transform="matrix(0.9902 0.1394 -0.1394 0.9902 1.0385 -2.5793)" fill="#BCFCD0" width="0.7" height="0.2"/>
	
		<rect x="18" y="8.9" transform="matrix(0.1501 0.9887 -0.9887 0.1501 24.5272 -10.5323)" fill="#BCFCD0" width="0.7" height="0.2"/>
	
		<rect x="11.9" y="22" transform="matrix(-0.7448 0.6672 -0.6672 -0.7448 36.1434 30.4754)" fill="#BCFCD0" width="0.7" height="0.2"/>
	<rect x="12" y="24.7" transform="matrix(0.3921 -0.9199 0.9199 0.3921 -15.33 26.3977)" fill="#BCFCD0" width="0.7" height="0.2"/>
	
		<rect x="13.5" y="19" transform="matrix(-0.6223 0.7828 -0.7828 -0.6223 37.4209 20.1415)" fill="#BCFCD0" width="0.7" height="0.2"/>
	
		<rect x="23.4" y="14.2" transform="matrix(-0.4436 0.8962 -0.8962 -0.4436 47.0758 -0.5617)" fill="#BCFCD0" width="0.7" height="0.2"/>
	<rect x="15.2" y="24.2" transform="matrix(0.891 -0.4541 0.4541 0.891 -9.3627 9.7275)" fill="#BCFCD0" width="0.7" height="0.2"/>
	
		<rect x="10.7" y="19.3" transform="matrix(-0.4677 0.8839 -0.8839 -0.4677 33.4493 18.6824)" fill="#BCFCD0" width="0.7" height="0.2"/>
	
		<rect x="11.1" y="16.7" transform="matrix(0.9902 0.1394 -0.1394 0.9902 2.4636 -1.438)" fill="#BCFCD0" width="0.7" height="0.2"/>
	
		<rect x="13.5" y="16.8" transform="matrix(0.1501 0.9887 -0.9887 0.1501 28.5078 0.6926)" fill="#BCFCD0" width="0.7" height="0.2"/>
	
		<rect x="16.8" y="36.1" transform="matrix(0.5613 0.8276 -0.8276 0.5613 37.4735 1.669)" fill="#BCFCD0" width="0.7" height="0.2"/>
	
		<rect x="18.3" y="28.9" transform="matrix(-0.3963 -0.9181 0.9181 -0.3963 -0.6772 57.6712)" fill="#BCFCD0" width="0.7" height="0.2"/>
	<rect x="7.8" y="35" transform="matrix(0.8516 0.5242 -0.5242 0.8516 19.6148 0.9459)" fill="#BCFCD0" width="0.7" height="0.2"/>
	
		<rect x="2.3" y="21.8" transform="matrix(-0.4436 0.8962 -0.8962 -0.4436 23.4596 29.2843)" fill="#BCFCD0" width="0.7" height="0.2"/>
	<rect x="5.3" y="25.2" transform="matrix(0.891 -0.4541 0.4541 0.891 -10.8924 5.3063)" fill="#BCFCD0" width="0.7" height="0.2"/>
	
		<rect x="3.2" y="24.9" transform="matrix(0.5602 0.8283 -0.8283 0.5602 22.2637 8.0114)" fill="#BCFCD0" width="0.7" height="0.2"/>
	
		<rect x="4.4" y="21.6" transform="matrix(0.9902 0.1394 -0.1394 0.9902 3.0723 -0.4495)" fill="#BCFCD0" width="0.7" height="0.2"/>
	
		<rect x="4.2" y="18.3" transform="matrix(0.1501 0.9887 -0.9887 0.1501 22.0876 11.0876)" fill="#BCFCD0" width="0.7" height="0.2"/>
	
		<rect x="21" y="20.3" transform="matrix(-0.7448 0.6672 -0.6672 -0.7448 50.9073 21.3558)" fill="#BCFCD0" width="0.7" height="0.2"/>
	<rect x="2.4" y="19" transform="matrix(0.7816 -0.6237 0.6237 0.7816 -11.3134 5.8824)" fill="#BCFCD0" width="0.7" height="0.2"/>
	<rect x="21" y="16.4" transform="matrix(0.3896 0.921 -0.921 0.3896 28.2577 -9.5991)" fill="#BCFCD0" width="0.7" height="0.2"/>
	<rect x="21.9" y="13.8" transform="matrix(0.92 0.3919 -0.3919 0.92 7.2306 -7.6276)" fill="#BCFCD0" width="0.7" height="0.2"/>
	
		<rect x="19.9" y="18.5" transform="matrix(0.891 -0.4541 0.4541 0.891 -6.2618 11.2407)" fill="#BCFCD0" width="0.7" height="0.2"/>
	
		<rect x="4.2" y="27.5" transform="matrix(-0.4677 0.8839 -0.8839 -0.4677 31.1239 36.4052)" fill="#BCFCD0" width="0.7" height="0.2"/>
	<rect x="23" y="11.1" transform="matrix(0.9902 0.1394 -0.1394 0.9902 1.7852 -3.1454)" fill="#BCFCD0" width="0.7" height="0.2"/>
	
		<rect x="22.6" y="16.7" transform="matrix(0.1501 0.9887 -0.9887 0.1501 36.2091 -8.3852)" fill="#BCFCD0" width="0.7" height="0.2"/>
	<rect x="17" y="11.6" transform="matrix(0.8534 0.5212 -0.5212 0.8534 8.6529 -7.3103)" fill="#BCFCD0" width="0.7" height="0.2"/>
	
		<rect x="13.9" y="22" transform="matrix(0.5362 0.8441 -0.8441 0.5362 25.2841 -1.7175)" fill="#BCFCD0" width="0.7" height="0.2"/>
	<rect x="8.6" y="18.7" transform="matrix(0.8121 0.5835 -0.5835 0.8121 12.6484 -1.71)" fill="#BCFCD0" width="0.7" height="0.2"/>
	
		<rect x="4.4" y="23.7" transform="matrix(-0.4436 0.8962 -0.8962 -0.4436 28.1926 30.0467)" fill="#BCFCD0" width="0.7" height="0.2"/>
	<rect x="6.1" y="27.8" transform="matrix(0.9771 0.2128 -0.2128 0.9771 6.0916 -0.726)" fill="#BCFCD0" width="0.7" height="0.2"/>
	
		<rect x="10.1" y="25.2" transform="matrix(0.6209 0.7839 -0.7839 0.6209 23.8346 1.3817)" fill="#BCFCD0" width="0.7" height="0.2"/>
	<rect x="9.1" y="33.3" transform="matrix(0.891 -0.4541 0.4541 0.891 -14.1433 7.9465)" fill="#BCFCD0" width="0.7" height="0.2"/>
	
		<rect x="9.4" y="38.9" transform="matrix(-0.6747 -0.7381 0.7381 -0.6747 -12.5029 72.506)" fill="#BCFCD0" width="0.7" height="0.2"/>
	
		<rect x="116.3" y="17.6" transform="matrix(0.8828 0.4698 -0.4698 0.8828 21.9758 -52.7278)" fill="#BCFCD0" width="0.7" height="0.2"/>
	
		<rect x="107.7" y="43.4" transform="matrix(-0.3963 -0.9181 0.9181 -0.3963 110.9305 160.0808)" fill="#BCFCD0" width="0.7" height="0.2"/>
	
		<rect x="107.5" y="22.9" transform="matrix(-0.896 -0.4441 0.4441 -0.896 194.2628 91.4706)" fill="#BCFCD0" width="0.7" height="0.2"/>
	
		<rect x="112.4" y="25.2" transform="matrix(0.9771 0.2127 -0.2127 0.9771 7.9547 -23.4076)" fill="#BCFCD0" width="0.7" height="0.2"/>
	
		<rect x="113.6" y="31" transform="matrix(0.4309 0.9024 -0.9024 0.4309 92.9874 -85.1171)" fill="#BCFCD0" width="0.7" height="0.2"/>
	
		<rect x="106.4" y="28.5" transform="matrix(0.5339 0.8456 -0.8456 0.5339 73.9957 -76.9468)" fill="#BCFCD0" width="0.7" height="0.2"/>
	
		<rect x="111.7" y="27.7" transform="matrix(0.8931 0.4498 -0.4498 0.8931 24.4917 -47.4207)" fill="#BCFCD0" width="0.7" height="0.2"/>
	
		<rect x="101" y="20.6" transform="matrix(0.5164 0.8564 -0.8564 0.5164 66.759 -76.8097)" fill="#BCFCD0" width="0.7" height="0.2"/>
	
		<rect x="101.7" y="24.9" transform="matrix(-0.7448 0.6672 -0.6672 -0.7448 194.8349 -24.3739)" fill="#BCFCD0" width="0.7" height="0.2"/>
	
		<rect x="107.7" y="37.5" transform="matrix(-0.7448 0.6672 -0.6672 -0.7448 213.6958 -6.3811)" fill="#BCFCD0" width="0.7" height="0.2"/>
	
		<rect x="116.1" y="37.5" transform="matrix(-0.1325 0.9912 -0.9912 -0.1325 169.2609 -72.8016)" fill="#BCFCD0" width="0.7" height="0.2"/>
	
		<rect x="121.6" y="19" transform="matrix(-0.7448 0.6672 -0.6672 -0.7448 225.5763 -48.0158)" fill="#BCFCD0" width="0.7" height="0.2"/>
</g>
</svg>
