<?xml version="1.0" encoding="utf-8"?>
<!-- Generator: Adobe Illustrator 19.0.1, SVG Export Plug-In . SVG Version: 6.00 Build 0)  -->
<!DOCTYPE svg PUBLIC "-//W3C//DTD SVG 1.1//EN" "http://www.w3.org/Graphics/SVG/1.1/DTD/svg11.dtd">
<svg version="1.1" id="cliff-svg" xmlns="http://www.w3.org/2000/svg" xmlns:xlink="http://www.w3.org/1999/xlink" x="0px" y="0px"
	 viewBox="0 0 100 165" enable-background="new 0 0 100 165" xml:space="preserve">
<linearGradient id="SVGID_1_" gradientUnits="userSpaceOnUse" x1="0.3386" y1="84.8572" x2="98.2751" y2="84.8572">
	<stop  offset="0" style="stop-color:#8D6A37"/>
	<stop  offset="0.4829" style="stop-color:#8D6A37"/>
	<stop  offset="0.503" style="stop-color:#8B6936"/>
	<stop  offset="0.7892" style="stop-color:#7A5C30"/>
	<stop  offset="1" style="stop-color:#74572E"/>
</linearGradient>
<polygon fill="url(#SVGID_1_)" points="0.3,156.1 14,159 28.1,159 40.8,156.1 46.5,157.6 54.7,159 68.7,159 84.1,156.1 86.7,153.7 
	85.5,149.4 78.1,133 72.4,120.7 69.6,110.1 67,97.8 69.3,84.8 67.3,69.1 69.3,57.1 69.3,51.8 73.6,42.8 78.4,37.5 82.7,29.8 
	90.4,22.2 93.8,15.5 98.3,10.7 0.3,10.7 "/>
<linearGradient id="SVGID_2_" gradientUnits="userSpaceOnUse" x1="12.609" y1="159.0089" x2="12.609" y2="17.2303">
	<stop  offset="0" style="stop-color:#A57C41"/>
	<stop  offset="1.880986e-02" style="stop-color:#A57C41"/>
	<stop  offset="0.1331" style="stop-color:#A57C41"/>
	<stop  offset="0.1953" style="stop-color:#9E773E;stop-opacity:0.918"/>
	<stop  offset="0.2865" style="stop-color:#8A6836;stop-opacity:0.7979"/>
	<stop  offset="0.3949" style="stop-color:#6A502A;stop-opacity:0.6549"/>
	<stop  offset="0.4366" style="stop-color:#5C4524;stop-opacity:0.6"/>
</linearGradient>
<polygon opacity="0.8" fill="url(#SVGID_2_)" points="3.7,156.8 1.5,114.3 4.6,114.3 4.6,100.8 9.9,100.8 8.2,64.3 13.1,17.2 
	20.3,17.2 23.7,17.2 23.7,159 14,159 "/>
<linearGradient id="SVGID_3_" gradientUnits="userSpaceOnUse" x1="26.2702" y1="17.2303" x2="26.2702" y2="159.0089">
	<stop  offset="0" style="stop-color:#A57C41"/>
	<stop  offset="0.1953" style="stop-color:#96713B;stop-opacity:0.9439"/>
	<stop  offset="1" style="stop-color:#5C4524;stop-opacity:0.7131"/>
</linearGradient>
<polygon fill="url(#SVGID_3_)" points="15.8,17.2 17.2,53.2 20.3,53.2 20.3,92.3 22.7,92.3 23.7,159 28.1,159 36.8,157 36.8,17.2 
	"/>
<linearGradient id="SVGID_4_" gradientUnits="userSpaceOnUse" x1="33.2609" y1="18.9307" x2="33.2609" y2="159.0089">
	<stop  offset="0" style="stop-color:#74572E;stop-opacity:0.8"/>
	<stop  offset="0.2639" style="stop-color:#84663A;stop-opacity:0.7736"/>
	<stop  offset="0.7802" style="stop-color:#AF8B59;stop-opacity:0.722"/>
	<stop  offset="1" style="stop-color:#C39D67;stop-opacity:0.7"/>
</linearGradient>
<polygon fill="url(#SVGID_4_)" points="42.8,18.9 42.8,156.6 40.8,156.1 28.1,159 32.6,103.8 29.3,103.8 33.6,76.2 30.4,76.2 
	30.4,51.3 25.5,42.7 23.7,18.9 "/>
<linearGradient id="SVGID_5_" gradientUnits="userSpaceOnUse" x1="54.0595" y1="17.2303" x2="54.0595" y2="159.0089">
	<stop  offset="1.020408e-02" style="stop-color:#C39D67"/>
	<stop  offset="0.1729" style="stop-color:#B18D5A"/>
	<stop  offset="0.5191" style="stop-color:#907042"/>
	<stop  offset="0.8072" style="stop-color:#7B5E33"/>
	<stop  offset="1" style="stop-color:#74572E"/>
</linearGradient>
<polygon opacity="0.5" fill="url(#SVGID_5_)" points="61.6,17.2 56.6,54.3 59.1,54.3 54.8,74.4 57,74.4 54.8,115.4 58.2,159 
	54.7,159 46.5,157.5 46.5,20.7 "/>
<linearGradient id="SVGID_6_" gradientUnits="userSpaceOnUse" x1="64.2178" y1="100.7743" x2="64.2178" y2="159.0089">
	<stop  offset="0" style="stop-color:#C39D67"/>
	<stop  offset="0.3487" style="stop-color:#AB8755"/>
	<stop  offset="1" style="stop-color:#74572E"/>
</linearGradient>
<polygon opacity="0.67" fill="url(#SVGID_6_)" points="61.6,159 64.8,121 63.2,115.5 66.8,100.8 66.8,159 "/>
<linearGradient id="SVGID_7_" gradientUnits="userSpaceOnUse" x1="71.284" y1="17.2303" x2="71.284" y2="47.4783">
	<stop  offset="5.102041e-03" style="stop-color:#C39D67;stop-opacity:0.8"/>
	<stop  offset="0.577" style="stop-color:#937344;stop-opacity:0.8"/>
	<stop  offset="1" style="stop-color:#74572E;stop-opacity:0.8"/>
</linearGradient>
<polygon opacity="0.8" fill="url(#SVGID_7_)" points="73.5,17.2 73.5,41.3 69,47.5 69,17.8 "/>
<linearGradient id="SVGID_8_" gradientUnits="userSpaceOnUse" x1="48.0439" y1="21.1325" x2="48.0439" y2="157.9893">
	<stop  offset="0" style="stop-color:#BA8E4E"/>
	<stop  offset="8.679098e-02" style="stop-color:#AD8448;stop-opacity:0.9826"/>
	<stop  offset="0.294" style="stop-color:#94703D;stop-opacity:0.9412"/>
	<stop  offset="0.5101" style="stop-color:#826234;stop-opacity:0.898"/>
	<stop  offset="0.7385" style="stop-color:#775A30;stop-opacity:0.8523"/>
	<stop  offset="1" style="stop-color:#74572E;stop-opacity:0.8"/>
</linearGradient>
<polygon fill="url(#SVGID_8_)" points="53.3,21.1 47.4,80.1 51.4,80.1 50.3,158 42.8,156.6 42.8,23.7 "/>
<polygon opacity="0.28" fill="#BA8E4E" points="11.2,21.8 7,61.1 7,22.5 "/>
<polygon opacity="0.67" fill="#74572E" points="7,22.5 7,80.1 4,80.1 0.3,23.7 "/>
<polygon opacity="0.67" fill="#8D6938" points="68.7,16.1 68.7,46.6 66.1,50.7 67.4,55.8 62.6,63.1 62.6,16.7 "/>
<polygon fill="#8D6937" points="40.9,23.7 40.9,67.1 43.8,63.1 44.9,58.5 49.3,21.9 "/>
<polygon fill="#8D6937" points="32.6,23 34,40.8 36.2,44.5 40.9,51.3 40.9,23.7 "/>
<polygon fill="#8B6736" points="40.8,156.1 40.8,127 36.8,130.7 36.8,139.7 34.5,150.4 32.6,158 "/>
<polygon opacity="0.67" fill="#886535" points="14,159 14,142.5 9.2,158 "/>
<linearGradient id="SVGID_9_" gradientUnits="userSpaceOnUse" x1="66.8108" y1="133.7065" x2="66.8108" y2="159.0089">
	<stop  offset="0" style="stop-color:#C39D67;stop-opacity:0.6"/>
	<stop  offset="0.3487" style="stop-color:#AB8755;stop-opacity:0.7395"/>
	<stop  offset="1" style="stop-color:#74572E"/>
</linearGradient>
<polygon fill="url(#SVGID_9_)" points="68.7,159 68.8,133.7 66.8,135.7 64.8,159 "/>
<polygon opacity="0.67" fill="#8D6938" points="70.7,158 70.7,122.4 73.9,128.7 73.9,133.7 77.1,137.4 77.1,142.5 78.1,157.2 
	70.7,158.6 "/>
<polygon fill="#8B6736" points="40.9,140.5 46.5,157.6 40.8,156.1 "/>
<linearGradient id="SVGID_10_" gradientUnits="userSpaceOnUse" x1="17.1529" y1="119.7354" x2="17.1529" y2="159.0089">
	<stop  offset="0" style="stop-color:#74572E"/>
	<stop  offset="0.2135" style="stop-color:#7A5B31;stop-opacity:0.9359"/>
	<stop  offset="0.4854" style="stop-color:#896838;stop-opacity:0.8544"/>
	<stop  offset="0.7874" style="stop-color:#A37C44;stop-opacity:0.7638"/>
	<stop  offset="1" style="stop-color:#BA8E4E;stop-opacity:0.7"/>
</linearGradient>
<polygon opacity="0.67" fill="url(#SVGID_10_)" points="14,159 14,124.5 16.9,119.7 18.9,122.4 20.3,146.4 20.3,159 "/>
<linearGradient id="cliff-top_1_" gradientUnits="userSpaceOnUse" x1="49.3068" y1="23.6528" x2="49.3068" y2="5.9911">
	<stop  offset="0" style="stop-color:#BA8E4E"/>
	<stop  offset="0.4361" style="stop-color:#B88C4D"/>
	<stop  offset="0.6587" style="stop-color:#B08649"/>
	<stop  offset="0.8325" style="stop-color:#A37B42"/>
	<stop  offset="0.981" style="stop-color:#906C39"/>
	<stop  offset="1" style="stop-color:#8D6A37"/>
</linearGradient>
<polygon id="cliff-top" fill="url(#cliff-top_1_)" points="0.3,8 11.5,6.8 34.3,8 48.1,6.8 61.7,6 85.5,7 97.1,9.2 98.3,10.8 
	97.1,12.6 85,17.2 77.1,17.2 59.7,19.8 40.9,23.7 19.4,21.8 11.2,21.8 0.3,23.7 "/>
</svg>
