<?xml version="1.0" encoding="utf-8"?>
<!-- Generator: Adobe Illustrator 19.0.1, SVG Export Plug-In . SVG Version: 6.00 Build 0)  -->
<!DOCTYPE svg PUBLIC "-//W3C//DTD SVG 1.1//EN" "http://www.w3.org/Graphics/SVG/1.1/DTD/svg11.dtd">
<svg version="1.1" id="sand-svg" xmlns="http://www.w3.org/2000/svg" xmlns:xlink="http://www.w3.org/1999/xlink" x="0px" y="0px"
	 viewBox="0 0 165 85" enable-background="new 0 0 165 85" xml:space="preserve">
<linearGradient id="SVGID_1_" gradientUnits="userSpaceOnUse" x1="82.3983" y1="84.9269" x2="82.3983" y2="22.0414">
	<stop  offset="0" style="stop-color:#E2B372"/>
	<stop  offset="1" style="stop-color:#F3E1C7"/>
</linearGradient>
<rect x="0" y="22" fill="url(#SVGID_1_)" width="164.8" height="62.9"/>
<linearGradient id="SVGID_2_" gradientUnits="userSpaceOnUse" x1="95.7573" y1="34.76" x2="155.3604" y2="94.3631">
	<stop  offset="0" style="stop-color:#EED3AA"/>
	<stop  offset="0.2225" style="stop-color:#EBD2AB;stop-opacity:0.5546"/>
	<stop  offset="0.3568" style="stop-color:#E3CEAF;stop-opacity:0.2859"/>
	<stop  offset="0.4673" style="stop-color:#D5C8B5;stop-opacity:6.473410e-02"/>
	<stop  offset="0.4996" style="stop-color:#CFC5B7;stop-opacity:0"/>
</linearGradient>
<path opacity="0.46" fill="url(#SVGID_2_)" d="M164.8,22h-38c0,0-24.7,0.4-28.3,11.2s13.3,12.9,11.2,17.5
	c-2.1,4.6-16.5-3.2-25.2,4.4s12.8,14.7,5.9,16.2c-6.9,1.5-6.1-1.7-18.7,5.9s-6.8,7.6-6.8,7.6h99.9V22z"/>
<linearGradient id="SVGID_3_" gradientUnits="userSpaceOnUse" x1="44.9462" y1="22.0414" x2="44.9462" y2="84.9269">
	<stop  offset="0" style="stop-color:#E2B372"/>
	<stop  offset="1" style="stop-color:#F3E1C7"/>
</linearGradient>
<path opacity="0.28" fill="url(#SVGID_3_)" d="M89.7,22c0,0,4.3,11.4-24.9,12.9S34.9,51.1,40.5,53.5c5.6,2.4,33.9-4.2,38.1,3.1
	c4.2,7.3-10.2,2.4-18.9,10.9s5.2,17.4,5.2,17.4H0V22H89.7z"/>
<linearGradient id="SVGID_4_" gradientUnits="userSpaceOnUse" x1="3.930884e-06" y1="53.4828" x2="149.5913" y2="53.4828">
	<stop  offset="0" style="stop-color:#E2B372"/>
	<stop  offset="0.344" style="stop-color:#E1B475;stop-opacity:0.656"/>
	<stop  offset="0.5515" style="stop-color:#DFB67D;stop-opacity:0.4485"/>
	<stop  offset="0.7229" style="stop-color:#DBBA8B;stop-opacity:0.2771"/>
	<stop  offset="0.8736" style="stop-color:#D5BF9F;stop-opacity:0.1264"/>
	<stop  offset="1" style="stop-color:#CFC5B7;stop-opacity:0"/>
</linearGradient>
<path opacity="0.1" fill="url(#SVGID_4_)" d="M93.6,22c0,0,31.3-0.4,32,8.5s-27.6,10.3-21.9,19.1s49.5,4.7,45.7,17.9
	s-41.7,17.4-41.7,17.4H0V22H93.6z"/>
</svg>
