<?xml version="1.0" encoding="utf-8"?>
<!-- Generator: Adobe Illustrator 19.0.1, SVG Export Plug-In . SVG Version: 6.00 Build 0)  -->
<!DOCTYPE svg PUBLIC "-//W3C//DTD SVG 1.1//EN" "http://www.w3.org/Graphics/SVG/1.1/DTD/svg11.dtd">
<svg version="1.1" id="mountains-svg" xmlns="http://www.w3.org/2000/svg" xmlns:xlink="http://www.w3.org/1999/xlink" x="0px"
	 y="0px" viewBox="0 0 165 50" enable-background="new 0 0 165 50" xml:space="preserve">
<linearGradient id="SVGID_1_" gradientUnits="userSpaceOnUse" x1="82.5" y1="19.4062" x2="82.5" y2="50">
	<stop  offset="0" style="stop-color:#AF86DC"/>
	<stop  offset="0.4233" style="stop-color:#B088DC"/>
	<stop  offset="0.5757" style="stop-color:#B58FDA"/>
	<stop  offset="0.6844" style="stop-color:#BE9AD7"/>
	<stop  offset="0.7723" style="stop-color:#CBABD3"/>
	<stop  offset="0.8475" style="stop-color:#DBC1CE"/>
	<stop  offset="0.913" style="stop-color:#EFDCC8"/>
	<stop  offset="0.9235" style="stop-color:#F3E1C7"/>
</linearGradient>
<polygon fill="url(#SVGID_1_)" points="0,26 4.8,26 6.4,31.9 6.8,28.3 7.7,21.7 9.3,28.3 9.3,20.1 14,20.1 16.6,34.4 18.8,24.4 
	21,34.4 24.2,22.5 33.1,22.5 33.1,25.3 35.6,23.4 39.1,30.7 41,22 43.3,25.8 44.9,19.4 52.5,20.3 52.5,33.7 55.7,22.9 57.2,25 
	60.1,21.1 71.8,21.1 71.8,28.3 75.4,24.3 79.2,30 81.1,26 86.8,26 89.6,20.1 100.4,20.1 103.3,26.9 109.4,23.6 111.3,26.9 
	115.4,26.9 115.4,30.5 121.5,22.4 131.7,22.4 133.8,25.5 137,19.4 143.7,19.4 143.7,26.9 148.5,23.1 149.7,26.9 152.6,25.5 
	161.5,25.5 165,21.3 165,50 0,50 "/>
</svg>
