<?xml version="1.0" encoding="utf-8"?>
<!-- Generator: Adobe Illustrator 19.2.1, SVG Export Plug-In . SVG Version: 6.00 Build 0)  -->
<svg version="1.1" id="sand-svg" xmlns="http://www.w3.org/2000/svg" xmlns:xlink="http://www.w3.org/1999/xlink" x="0px" y="0px"
	 viewBox="0 0 165 91.6" style="enable-background:new 0 0 165 91.6;" xml:space="preserve">
<style type="text/css">
	.st0{fill:url(#SVGID_1_);}
	.st1{fill:url(#SVGID_2_);}
	.st2{opacity:0.46;fill:url(#SVGID_3_);enable-background:new    ;}
	.st3{opacity:0.28;fill:url(#SVGID_4_);enable-background:new    ;}
	.st4{opacity:0.1;fill:url(#SVGID_5_);enable-background:new    ;}
</style>
<linearGradient id="SVGID_1_" gradientUnits="userSpaceOnUse" x1="82.5" y1="-1.690751e-09" x2="82.5" y2="30.5938">
	<stop  offset="0" style="stop-color:#AF86DC"/>
	<stop  offset="0.4233" style="stop-color:#B088DC"/>
	<stop  offset="0.5757" style="stop-color:#B58FDA"/>
	<stop  offset="0.6844" style="stop-color:#BE9AD7"/>
	<stop  offset="0.7723" style="stop-color:#CBABD3"/>
	<stop  offset="0.8475" style="stop-color:#DBC1CE"/>
	<stop  offset="0.913" style="stop-color:#EFDCC8"/>
	<stop  offset="0.9235" style="stop-color:#F3E1C7"/>
</linearGradient>
<polygon class="st0" points="0,6.6 4.8,6.6 6.4,12.5 6.8,8.9 7.7,2.3 9.3,8.9 9.3,0.7 14,0.7 16.6,15 18.8,5 21,15 24.2,3.1 
	33.1,3.1 33.1,5.9 35.6,4 39.1,11.3 41,2.6 43.3,6.4 44.9,0 52.5,0.9 52.5,14.3 55.7,3.5 57.2,5.6 60.1,1.7 71.8,1.7 71.8,8.9 
	75.4,4.9 79.2,10.6 81.1,6.6 86.8,6.6 89.6,0.7 100.4,0.7 103.3,7.5 109.4,4.2 111.3,7.5 115.4,7.5 115.4,11.1 121.5,3 131.7,3 
	133.8,6.1 137,0 143.7,0 143.7,7.5 148.5,3.7 149.7,7.5 152.6,6.1 161.5,6.1 165,1.9 165,30.6 0,30.6 "/>
<linearGradient id="SVGID_2_" gradientUnits="userSpaceOnUse" x1="82.4" y1="7.6938" x2="82.4" y2="70.5938" gradientTransform="matrix(1 0 0 -1 0 99.1876)">
	<stop  offset="0" style="stop-color:#E2B372"/>
	<stop  offset="1" style="stop-color:#F3E1C7"/>
</linearGradient>
<rect y="28.6" class="st1" width="164.8" height="62.9"/>
<linearGradient id="SVGID_3_" gradientUnits="userSpaceOnUse" x1="95.7907" y1="57.8672" x2="155.4075" y2="-1.7496" gradientTransform="matrix(1 0 0 -1 0 99.1876)">
	<stop  offset="0" style="stop-color:#EED3AA"/>
	<stop  offset="0.2225" style="stop-color:#EBD2AB;stop-opacity:0.5546"/>
	<stop  offset="0.3568" style="stop-color:#E3CEAF;stop-opacity:0.2859"/>
	<stop  offset="0.4673" style="stop-color:#D5C8B5;stop-opacity:6.473410e-02"/>
	<stop  offset="0.4996" style="stop-color:#CFC5B7;stop-opacity:0"/>
</linearGradient>
<path class="st2" d="M164.8,28.6h-38c0,0-24.7,0.4-28.3,11.2s13.3,12.9,11.2,17.5c-2.1,4.6-16.5-3.2-25.2,4.4s12.8,14.7,5.9,16.2
	s-6.1-1.7-18.7,5.9s-6.8,7.6-6.8,7.6h99.9L164.8,28.6L164.8,28.6z"/>
<linearGradient id="SVGID_4_" gradientUnits="userSpaceOnUse" x1="44.9613" y1="70.5938" x2="44.9613" y2="7.6938" gradientTransform="matrix(1 0 0 -1 0 99.1876)">
	<stop  offset="0" style="stop-color:#E2B372"/>
	<stop  offset="1" style="stop-color:#F3E1C7"/>
</linearGradient>
<path class="st3" d="M89.7,28.6c0,0,4.3,11.4-24.9,12.9S34.9,57.7,40.5,60.1s33.9-4.2,38.1,3.1s-10.2,2.4-18.9,10.9
	s5.2,17.4,5.2,17.4H0V28.6H89.7z"/>
<linearGradient id="SVGID_5_" gradientUnits="userSpaceOnUse" x1="0" y1="39.1452" x2="149.6333" y2="39.1452" gradientTransform="matrix(1 0 0 -1 0 99.1876)">
	<stop  offset="0" style="stop-color:#E2B372"/>
	<stop  offset="0.344" style="stop-color:#E1B475;stop-opacity:0.656"/>
	<stop  offset="0.5515" style="stop-color:#DFB67D;stop-opacity:0.4485"/>
	<stop  offset="0.7229" style="stop-color:#DBBA8B;stop-opacity:0.2771"/>
	<stop  offset="0.8736" style="stop-color:#D5BF9F;stop-opacity:0.1264"/>
	<stop  offset="1" style="stop-color:#CFC5B7;stop-opacity:0"/>
</linearGradient>
<path class="st4" d="M93.6,28.6c0,0,31.3-0.4,32,8.5S98,47.4,103.7,56.2s49.5,4.7,45.7,17.9s-41.7,17.4-41.7,17.4H0V28.6H93.6z"/>
</svg>
